<svg width="532" height="479" viewBox="0 0 532 479" fill="none" xmlns="http://www.w3.org/2000/svg">
<g clip-path="url(#clip0)">
<path d="M80.8007 385.327C80.8007 414.289 64.9704 424.402 45.4441 424.402C44.9895 424.402 44.5373 424.397 44.0876 424.383C43.1833 424.362 42.2864 424.319 41.4017 424.25C23.7774 422.895 10.085 412.26 10.085 385.327C10.085 357.456 42.827 322.286 45.2966 319.675L45.3016 319.672C45.3949 319.571 45.4441 319.52 45.4441 319.52C45.4441 319.52 80.8007 356.363 80.8007 385.327Z" fill="#3F3D56"/>
<path d="M44.1534 419.971L57.0865 400.318L44.1214 422.128L44.087 424.383C43.1827 424.362 42.2858 424.319 41.4011 424.25L42.7944 395.275L42.7846 395.05L42.8092 395.008L42.9394 392.271L29.9424 370.405L42.9787 390.218L43.0107 390.798L44.0649 368.906L32.9379 346.314L44.2 365.06L45.296 319.675L45.3009 319.52V319.672L45.1191 355.462L56.1944 341.273L45.0724 358.544L44.78 378.146L55.123 359.335L44.7358 381.032L44.5736 391.929L59.5881 365.744L44.5171 395.732L44.1534 419.971Z" fill="#F2F2F2"/>
<g opacity="0.7">
<path opacity="0.7" d="M490.893 182.329V175.354H458.828V207.613C458.828 209.417 459.487 211.147 460.659 212.422C461.832 213.697 463.422 214.414 465.081 214.414H484.64C486.299 214.414 487.889 213.697 489.062 212.422C490.234 211.147 490.893 209.417 490.893 207.613V200.464C493.104 200.464 495.225 199.509 496.788 197.808C498.352 196.108 499.23 193.801 499.23 191.397C499.23 188.992 498.352 186.685 496.788 184.985C495.225 183.285 493.104 182.329 490.893 182.329ZM490.893 196.977V185.817C492.254 185.817 493.559 186.405 494.521 187.451C495.483 188.497 496.024 189.917 496.024 191.397C496.024 192.877 495.483 194.296 494.521 195.342C493.559 196.389 492.254 196.977 490.893 196.977Z" fill="url(#paint0_linear)"/>
</g>
<path d="M489.861 183.421C488.355 183.421 486.884 183.907 485.632 184.816C484.38 185.726 483.405 187.019 482.828 188.532C482.252 190.045 482.102 191.709 482.395 193.315C482.689 194.921 483.414 196.396 484.478 197.554C485.543 198.712 486.899 199.501 488.376 199.82C489.853 200.139 491.383 199.975 492.774 199.349C494.165 198.722 495.354 197.661 496.19 196.3C497.026 194.938 497.473 193.338 497.473 191.7C497.473 189.504 496.671 187.399 495.243 185.846C493.816 184.293 491.88 183.421 489.861 183.421ZM489.861 196.795C488.934 196.795 488.029 196.496 487.258 195.936C486.488 195.376 485.888 194.581 485.533 193.65C485.179 192.719 485.086 191.694 485.267 190.706C485.447 189.718 485.894 188.81 486.549 188.098C487.204 187.385 488.038 186.9 488.947 186.703C489.856 186.507 490.798 186.608 491.654 186.993C492.509 187.379 493.241 188.032 493.756 188.87C494.27 189.707 494.545 190.692 494.545 191.7C494.545 193.051 494.052 194.347 493.173 195.303C492.295 196.258 491.103 196.795 489.861 196.795Z" fill="#2340E2"/>
<path opacity="0.1" d="M489.861 183.421C488.355 183.421 486.884 183.907 485.632 184.816C484.38 185.726 483.405 187.019 482.828 188.532C482.252 190.045 482.102 191.709 482.395 193.315C482.689 194.921 483.414 196.396 484.478 197.554C485.543 198.712 486.899 199.501 488.376 199.82C489.853 200.139 491.383 199.975 492.774 199.349C494.165 198.722 495.354 197.661 496.19 196.3C497.026 194.938 497.473 193.338 497.473 191.7C497.473 189.504 496.671 187.399 495.243 185.846C493.816 184.293 491.88 183.421 489.861 183.421ZM489.861 196.795C488.934 196.795 488.029 196.496 487.258 195.936C486.488 195.376 485.888 194.581 485.533 193.65C485.179 192.719 485.086 191.694 485.267 190.706C485.447 189.718 485.894 188.81 486.549 188.098C487.204 187.385 488.038 186.9 488.947 186.703C489.856 186.507 490.798 186.608 491.654 186.993C492.509 187.379 493.241 188.032 493.756 188.87C494.27 189.707 494.545 190.692 494.545 191.7C494.545 193.051 494.052 194.347 493.173 195.303C492.295 196.258 491.103 196.795 489.861 196.795Z" fill="black"/>
<path d="M460.584 177.053H489.861V206.474C489.861 208.129 489.256 209.717 488.18 210.888C487.104 212.058 485.644 212.716 484.122 212.716H466.323C464.801 212.716 463.341 212.058 462.265 210.888C461.189 209.717 460.584 208.129 460.584 206.474V177.053Z" fill="#2340E2"/>
<path opacity="0.1" d="M484.591 177.053V206.507C484.591 208.153 483.989 209.733 482.919 210.897C481.848 212.062 480.396 212.716 478.882 212.716H481.81C483.324 212.716 484.776 212.062 485.846 210.897C486.917 209.733 487.518 208.153 487.518 206.507V177.053H484.591Z" fill="black"/>
<path d="M466.362 153.313C466.111 153.322 465.866 153.39 465.642 153.514C465.419 153.637 465.223 153.812 465.069 154.027C464.685 154.784 465.381 155.638 466.016 156.158C467.189 157.12 468.426 158.064 469.223 159.406C470.021 160.747 470.271 162.619 469.399 163.905C468.261 165.584 465.545 165.945 465.283 168.012C465.114 169.338 466.168 170.47 467.237 171.136C469.874 172.779 473.274 173.217 475.184 175.788C475.974 174.021 477.741 172.999 479.503 172.563C481.265 172.127 483.095 172.159 484.882 171.863C485.173 171.857 485.46 171.777 485.718 171.628C485.975 171.479 486.197 171.266 486.366 171.007C486.865 169.905 485.442 168.583 485.933 167.477C486.307 166.635 487.405 166.7 488.207 166.363C489.513 165.814 490.051 163.986 489.681 162.517C489.31 161.049 488.263 159.901 487.162 158.961C484.195 156.425 480.628 154.934 477.02 153.861C475.342 153.363 473.372 152.58 471.629 152.505C469.946 152.432 468.027 153.003 466.362 153.313Z" fill="#EEEEEE"/>
<path d="M260.878 220.236L199.662 427.657" stroke="#E0E0E0" stroke-width="8" stroke-miterlimit="10"/>
<g opacity="0.7">
<path opacity="0.7" d="M308.307 451.018C300.777 451.493 294.069 458.354 294.069 458.354L290.825 449.602L290.56 449.696C292.145 442.152 324.386 286.627 292.111 273.219C267.311 262.917 241.006 250.167 220.396 250.647V213.906H249.29V212.597H272.164C276.549 209.19 270.178 206.848 263.057 205.384C263.347 205.023 263.603 204.63 263.82 204.213L300.457 132.722C300.457 132.722 308.884 117.664 303.467 110.462C298.049 103.26 290.223 128.794 290.223 128.794L260.125 175.933C260.125 175.933 229.748 141.497 210.423 124.372C208.279 122.06 205.86 120.071 203.23 118.458C199.702 115.863 197.032 114.518 195.715 115.045C195.702 115.05 195.691 115.059 195.678 115.065C192.749 114.183 189.725 113.736 186.686 113.736H184.278V108.364C189.672 106.426 194.606 103.218 198.729 98.9691C202.853 94.7197 206.063 89.5333 208.132 83.7796C211.528 77.6625 213.602 70.7863 214.198 63.67C214.793 56.5537 213.895 49.3833 211.57 42.6999C211.929 42.6537 212.275 42.5235 212.584 42.3181C213.674 41.5549 213.782 39.8851 213.676 38.4796C213.281 33.7624 211.835 29.2209 209.464 25.2479C207.092 21.2748 203.867 17.9898 200.066 15.6768C197.016 13.8629 193.523 12.6132 191.274 9.73039C189.342 7.25329 188.53 3.78878 186.191 1.76765C183.413 -0.633496 179.4 -0.220708 175.991 0.850714C172.197 2.04454 168.603 3.8892 165.344 6.3151C161.656 9.06197 158.329 12.591 154.083 14.1114C151.067 15.1917 147.796 15.1702 144.76 16.1851C142.43 16.9879 140.306 18.3726 138.556 20.2284C136.807 22.0842 135.481 24.3596 134.685 26.8724C133.912 29.572 133.62 32.4071 133.823 35.2258C131.977 38.5819 130.524 42.1761 129.499 45.9246C129.272 46.058 129.044 46.1886 128.819 46.3261L129.479 46.0033C127.176 54.4561 127.1 63.4417 129.258 71.9393C131.416 80.4369 135.722 88.1058 141.687 94.0746C146.401 100.749 152.851 105.727 160.2 108.364V114.862C154.957 116.092 149.955 118.32 145.426 121.443L145.419 121.435C145.419 121.435 145.035 121.693 144.377 122.174C144.311 122.223 144.245 122.271 144.18 122.319C139.725 125.608 124.799 137.622 125.303 150.605C125.284 151.104 125.286 151.605 125.311 152.107C124.496 155.859 124.084 159.7 124.082 163.556V257.772C124.07 268.183 127.287 278.293 133.212 286.469C120.65 289.532 112.645 294.163 112.645 299.346C112.708 299.78 112.708 300.222 112.645 300.656C112.645 309.876 137.978 317.351 169.229 317.351C173.007 317.351 176.698 317.24 180.269 317.032L215.58 348.122L158.996 446.983C158.996 446.983 140.335 462.697 154.782 467.934C169.229 473.172 198.725 477.1 198.725 477.1C198.725 477.1 203.541 467.934 196.919 464.006C190.298 460.078 181.268 462.042 181.268 462.042L182.472 454.185C182.472 454.185 280.592 362.526 260.125 331.1C256.21 325.087 252.294 318.884 248.345 312.777L263.791 314.308L267.306 458.195L267.745 458.04C266.863 460.866 260.622 482.2 274.455 478.59C289.263 474.725 316.207 461.092 316.207 461.092C316.207 461.092 315.837 450.543 308.307 451.018ZM249.29 203.431L220.396 194.307V167.422L251.8 203.68C250.256 203.512 249.29 203.431 249.29 203.431Z" fill="url(#paint1_linear)"/>
</g>
<path d="M171.997 109.483C195.403 109.483 214.377 88.8459 214.377 63.3891C214.377 37.9323 195.403 17.2954 171.997 17.2954C148.591 17.2954 129.617 37.9323 129.617 63.3891C129.617 88.8459 148.591 109.483 171.997 109.483Z" fill="black"/>
<path d="M220.264 169.02L252.607 206.362C253.288 207.148 254.129 207.749 255.064 208.115C255.998 208.481 256.999 208.603 257.985 208.469C258.97 208.336 259.913 207.952 260.737 207.349C261.56 206.745 262.242 205.939 262.725 204.995L298.549 135.09L288.543 131.249L259.112 177.343C259.112 177.343 203.861 114.709 196.131 117.805C188.401 120.902 220.264 169.02 220.264 169.02Z" fill="#2340E2"/>
<path d="M158.46 298.339L110.782 432.779" stroke="#BDBDBD" stroke-width="5" stroke-miterlimit="10"/>
<path d="M182.004 298.339L229.681 432.779" stroke="#BDBDBD" stroke-width="5" stroke-miterlimit="10"/>
<path d="M170.232 315.624C200.789 315.624 225.561 308.315 225.561 299.299C225.561 290.283 200.789 282.974 170.232 282.974C139.674 282.974 114.902 290.283 114.902 299.299C114.902 308.315 139.674 315.624 170.232 315.624Z" fill="#B84733"/>
<path d="M170.232 314.344C200.789 314.344 225.561 307.035 225.561 298.019C225.561 289.003 200.789 281.694 170.232 281.694C139.674 281.694 114.902 289.003 114.902 298.019C114.902 307.035 139.674 314.344 170.232 314.344Z" fill="#F55F44"/>
<path d="M146.95 327.876L199.154 345.372" stroke="#BDBDBD" stroke-width="5" stroke-miterlimit="10"/>
<path d="M193.514 327.876L141.31 345.372" stroke="#BDBDBD" stroke-width="5" stroke-miterlimit="10"/>
<path d="M170.876 116.525H187.302C196.044 116.525 204.428 120.302 210.609 127.025C216.791 133.749 220.264 142.867 220.264 152.376V247.124H126.086V165.24C126.086 152.32 130.805 139.929 139.205 130.793C147.604 121.657 158.997 116.525 170.876 116.525Z" fill="#2340E2"/>
<path d="M126.086 247.124H220.264V302.82H167.877C156.794 302.82 146.164 298.031 138.326 289.507C130.489 280.983 126.086 269.422 126.086 257.367V247.124Z" fill="#39447A"/>
<path opacity="0.05" d="M127.358 154.961L184.947 214.474H248.517V205.511L193.777 188.226L146.95 125.334C146.95 125.334 125.687 139.622 127.358 154.961Z" fill="black"/>
<path d="M127.358 153.681L184.947 213.194H248.517V204.231L193.777 186.946L146.95 124.053C146.95 124.053 125.687 138.342 127.358 153.681Z" fill="#2340E2"/>
<path d="M248.518 204.231C248.518 204.231 279.125 206.792 270.885 213.194H248.518V204.231Z" fill="#FDA57D"/>
<path d="M288.543 131.249C288.543 131.249 296.195 106.282 301.492 113.324C306.79 120.366 298.549 135.09 298.549 135.09L288.543 131.249Z" fill="#FDA57D"/>
<path opacity="0.05" d="M126.086 247.124V250.111L220.264 250.325V247.124H126.086Z" fill="black"/>
<path d="M199.346 306.37L262.696 312.649L266.133 453.345L288.813 445.314C288.813 445.314 322.733 285.908 290.388 272.472C258.044 259.035 223.082 241.342 202.207 255.761C181.333 270.181 199.346 306.37 199.346 306.37Z" fill="#39447A"/>
<path opacity="0.1" d="M203.194 263.128C203.194 263.128 237.922 282.334 242.631 304.101L203.194 263.128Z" fill="black"/>
<path d="M166.112 302.18L215.555 345.713L160.226 442.382L183.181 449.424C183.181 449.424 279.125 359.797 259.112 329.068C239.099 298.339 219.087 262.488 194.365 261.848C169.643 261.208 166.112 302.18 166.112 302.18Z" fill="#39447A"/>
<path opacity="0.05" d="M243.809 160.698L256.169 183.745L259.112 177.343L243.809 160.698Z" fill="black"/>
<path d="M160.225 442.382C160.225 442.382 141.978 457.746 156.105 462.868C170.231 467.989 199.073 471.83 199.073 471.83C199.073 471.83 203.782 462.868 197.307 459.027C190.833 455.185 182.004 457.106 182.004 457.106L183.181 449.424L160.225 442.382Z" fill="#333333"/>
<path d="M266.66 452.89C266.66 452.89 258.645 477.066 273.125 473.287C287.604 469.508 313.95 456.178 313.95 456.178C313.95 456.178 313.589 445.862 306.226 446.327C298.863 446.791 292.303 453.5 292.303 453.5L289.132 444.942L266.66 452.89Z" fill="#333333"/>
<path d="M173.175 94.1182H173.175C166.673 94.1182 161.402 99.8506 161.402 106.922V119.726C161.402 126.797 166.673 132.53 173.175 132.53H173.175C179.676 132.53 184.947 126.797 184.947 119.726V106.922C184.947 99.8506 179.676 94.1182 173.175 94.1182Z" fill="#FDA57D"/>
<path opacity="0.05" d="M173.175 95.3987C170.052 95.3987 167.058 96.7476 164.85 99.1488C162.643 101.55 161.402 104.807 161.402 108.202V112.553C169.049 115.288 177.3 115.288 184.947 112.553V108.202C184.947 104.807 183.706 101.55 181.499 99.1488C179.291 96.7476 176.297 95.3987 173.175 95.3987Z" fill="black"/>
<path d="M173.175 113.324C193.98 113.324 210.846 94.9801 210.846 72.3518C210.846 49.7235 193.98 31.3796 173.175 31.3796C152.37 31.3796 135.504 49.7235 135.504 72.3518C135.504 94.9801 152.37 113.324 173.175 113.324Z" fill="#FDA57D"/>
<path opacity="0.05" d="M135.504 70.4927C135.504 70.4927 144.922 73.1323 150.219 61.4906C155.517 49.8488 159.637 43.4987 181.416 50.378C203.194 57.2572 207.575 58.0965 208.622 51.5914C209.337 47.1462 201.593 36.349 196.617 29.9565C194.189 26.838 190.228 24.9778 185.994 24.9778H161.403L146.687 32.3862L135.504 42.9696L133.149 57.2572L135.504 70.4927Z" fill="black"/>
<path d="M135.504 69.2121C135.504 69.2121 144.922 71.8518 150.219 60.21C155.517 48.5683 159.637 42.2182 181.416 49.0974C203.194 55.9767 207.575 56.816 208.622 50.3109C209.337 45.8657 201.593 35.0685 196.617 28.676C194.189 25.5575 190.228 23.6973 185.994 23.6973H161.403L146.687 31.1057L135.504 41.6891L133.149 55.9767L135.504 69.2121Z" fill="black"/>
<path d="M139.33 77.4733C141.443 77.4733 143.156 73.7472 143.156 69.1508C143.156 64.5545 141.443 60.8284 139.33 60.8284C137.217 60.8284 135.504 64.5545 135.504 69.1508C135.504 73.7472 137.217 77.4733 139.33 77.4733Z" fill="#FDA57D"/>
<path d="M136.595 47.7359C135.722 42.3767 134.865 36.7491 136.454 31.5882C137.233 29.1311 138.529 26.9062 140.24 25.0916C141.95 23.277 144.028 21.923 146.306 21.1379C149.274 20.1455 152.473 20.1666 155.422 19.1102C159.573 17.6235 162.827 14.1728 166.433 11.4868C169.62 9.11471 173.134 7.31096 176.844 6.14363C180.177 5.09595 184.101 4.69231 186.818 7.04023C189.105 9.01654 189.899 12.4042 191.788 14.8264C193.987 17.6452 197.403 18.8672 200.385 20.6409C204.101 22.9026 207.255 26.1147 209.574 29.9996C211.893 33.8846 213.307 38.3253 213.694 42.9379C213.796 44.3123 213.691 45.945 212.625 46.6913C211.963 47.0577 211.217 47.2058 210.478 47.1175C195.422 46.8835 180.348 46.6485 165.354 45.1452C160.693 44.6779 156.023 44.0875 151.345 44.2802C144.106 44.5872 137.037 46.7566 130.718 50.6104" fill="black"/>
<path d="M71.3994 413.094H19.2971C8.63961 413.094 0 422.49 0 434.082V434.082C0 445.673 8.63961 455.07 19.2971 455.07H71.3994C82.0569 455.07 90.6965 445.673 90.6965 434.082C90.6965 422.49 82.0569 413.094 71.3994 413.094Z" fill="#2340E2"/>
<path d="M338.967 263.235C339.196 263.226 339.413 263.121 339.572 262.942C339.731 262.763 339.82 262.524 339.82 262.275C339.82 262.026 339.731 261.786 339.572 261.607C339.413 261.428 339.196 261.323 338.967 261.314C338.738 261.323 338.521 261.428 338.362 261.607C338.203 261.786 338.114 262.026 338.114 262.275C338.114 262.524 338.203 262.763 338.362 262.942C338.521 263.121 338.738 263.226 338.967 263.235Z" fill="url(#paint2_linear)"/>
<path d="M468.518 220.236L529.733 457.165" stroke="#E0E0E0" stroke-width="8" stroke-miterlimit="10"/>
<path d="M529.982 213.297H199.414V227.308H529.982V213.297Z" fill="#E0E0E0"/>
<path d="M331.217 209.993H284.717C282.604 209.993 280.891 211.856 280.891 214.154V214.154C280.891 216.452 282.604 218.315 284.717 218.315H331.217C333.33 218.315 335.043 216.452 335.043 214.154C335.043 211.856 333.33 209.993 331.217 209.993Z" fill="#535461"/>
<g opacity="0.7">
<path opacity="0.7" d="M431.834 117.204H330.463C321.289 117.204 313.853 125.292 313.853 135.27V200.353C313.853 210.331 321.289 218.419 330.463 218.419H431.834C441.007 218.419 448.444 210.331 448.444 200.353V135.27C448.444 125.292 441.007 117.204 431.834 117.204Z" fill="url(#paint3_linear)"/>
</g>
<path d="M427.956 119.072H332.048C323.325 119.072 316.253 126.763 316.253 136.251V201.239C316.253 210.727 323.325 218.419 332.048 218.419H427.956C436.68 218.419 443.751 210.727 443.751 201.239V136.251C443.751 126.763 436.68 119.072 427.956 119.072Z" fill="#3E3F49"/>
<path d="M429.722 119.072H333.814C325.09 119.072 318.019 126.763 318.019 136.251V201.239C318.019 210.727 325.09 218.419 333.814 218.419H429.722C438.445 218.419 445.517 210.727 445.517 201.239V136.251C445.517 126.763 438.445 119.072 429.722 119.072Z" fill="#535461"/>
<path d="M387.724 172.542C389.999 172.542 391.844 170.535 391.844 168.06C391.844 165.585 389.999 163.579 387.724 163.579C385.448 163.579 383.604 165.585 383.604 168.06C383.604 170.535 385.448 172.542 387.724 172.542Z" fill="#E0E0E0"/>
</g>
<defs>
<linearGradient id="paint0_linear" x1="479.029" y1="214.414" x2="479.029" y2="175.354" gradientUnits="userSpaceOnUse">
<stop stop-color="#808080" stop-opacity="0.25"/>
<stop offset="0.53514" stop-color="#808080" stop-opacity="0.12"/>
<stop offset="1" stop-color="#808080" stop-opacity="0.1"/>
</linearGradient>
<linearGradient id="paint1_linear" x1="104763" y1="394748" x2="104763" y2="36352.5" gradientUnits="userSpaceOnUse">
<stop stop-color="#808080" stop-opacity="0.25"/>
<stop offset="0.53514" stop-color="#808080" stop-opacity="0.12"/>
<stop offset="1" stop-color="#808080" stop-opacity="0.1"/>
</linearGradient>
<linearGradient id="paint2_linear" x1="1575.96" y1="1196.77" x2="1575.96" y2="1191.01" gradientUnits="userSpaceOnUse">
<stop stop-color="#808080" stop-opacity="0.25"/>
<stop offset="0.53514" stop-color="#808080" stop-opacity="0.12"/>
<stop offset="1" stop-color="#808080" stop-opacity="0.1"/>
</linearGradient>
<linearGradient id="paint3_linear" x1="87467.1" y1="34649.5" x2="87467.1" y2="18647.3" gradientUnits="userSpaceOnUse">
<stop stop-color="#808080" stop-opacity="0.25"/>
<stop offset="0.53514" stop-color="#808080" stop-opacity="0.12"/>
<stop offset="1" stop-color="#808080" stop-opacity="0.1"/>
</linearGradient>
<clipPath id="clip0">
<rect width="532" height="479" fill="white"/>
</clipPath>
</defs>
</svg>
