<svg width="353" height="251" viewBox="0 0 353 251" fill="none" xmlns="http://www.w3.org/2000/svg">
<path opacity="0.1" d="M327.348 205.874C326.246 206.921 325.119 207.938 323.969 208.926C323.775 209.095 323.575 209.258 323.379 209.43C319.274 212.873 314.964 216.02 310.477 218.852L309.639 219.38C309.436 219.513 309.236 219.636 309.025 219.759C304.337 222.684 299.474 225.378 294.553 227.928L294.501 227.958L294.13 228.147C290.161 230.204 286.133 232.172 282.045 234.052L281.947 234.092C280.104 234.931 278.261 235.748 276.418 236.543C275.665 236.875 274.91 237.184 274.154 237.499C272.732 238.087 271.306 238.665 269.869 239.219L269.691 239.292L269.384 239.409L269 239.561C265.25 241.009 261.45 242.347 257.6 243.573L257.533 243.593C254.848 244.439 252.146 245.221 249.426 245.941L249.055 246.041C245.061 247.083 241.004 247.98 236.921 248.697L235.981 248.86C232.996 249.367 229.989 249.781 226.963 250.102C209.948 251.879 192.731 250.434 175.821 247.957C141.675 242.949 107.981 233.56 77.2515 218.845C71.3537 216.022 65.5706 213 59.9022 209.779C59.8561 209.753 59.8162 209.726 59.7701 209.703C56.3769 207.774 53.0297 205.765 49.7286 203.675C48.761 203.071 47.7995 202.453 46.8442 201.832C45.6687 201.066 44.4984 200.291 43.3332 199.507C41.7973 198.471 40.2614 197.409 38.7256 196.323L38.0068 195.805L37.7303 195.602C37.3402 195.32 36.9562 195.037 36.5692 194.752C22.1319 184.125 9.25822 171.246 3.17615 155.13C-3.85202 136.532 0.645026 112.953 18.0527 101.961C24.0364 98.1751 30.9909 96.1195 38.019 94.4225L38.7378 94.2498C39.9266 93.9675 41.1154 93.6952 42.298 93.4229C46.4418 92.4731 50.6071 91.5299 54.7325 90.4772C56.8827 89.9292 59.0114 89.3547 61.1278 88.7337L61.9941 88.4746C67.0983 86.9942 72.0901 85.0935 76.9259 82.7892H76.9566C77.4757 82.5401 77.9887 82.2811 78.4925 82.0154C78.8181 81.8493 79.1437 81.6833 79.4693 81.5006C84.6913 78.6911 90.2204 74.7956 94.4748 70.1529C94.8158 69.781 95.1475 69.4024 95.4701 69.0238C95.7189 68.7282 95.9646 68.4294 96.2011 68.1305C99.1838 64.3712 101.248 60.1967 101.641 55.7666C101.774 54.2779 101.712 52.7765 101.457 51.3065C100.975 48.5202 100.508 45.7937 100.164 43.1337C99.5217 38.1356 99.3036 33.3568 100.194 28.7506C101.101 24.0548 103.156 19.535 107.078 15.1513C107.67 14.4871 108.308 13.8229 108.992 13.1587C112.164 10.1498 115.754 7.69788 119.629 5.89248C120.109 5.67109 120.591 5.44969 121.076 5.22829C131.852 0.512538 144.799 -0.470463 156.896 0.180444C168.197 0.809226 179.427 2.49819 190.458 5.22829C191.333 5.44083 192.209 5.66334 193.078 5.89248C202.462 8.35002 211.695 11.4367 220.724 15.1347C244.186 24.6758 266.33 37.9231 287.018 52.5419C287.221 52.6847 287.424 52.8275 287.633 52.9736C288.497 53.5825 289.356 54.1935 290.21 54.8068C291.863 55.9913 293.501 57.1835 295.125 58.3835L296.221 59.1905C296.762 59.589 297.3 59.9886 297.834 60.3893L299.481 61.6214C299.558 61.6718 299.632 61.7284 299.702 61.7908L301.102 62.8402C301.913 63.4513 302.718 64.0656 303.526 64.6833L305.259 66.0117C305.618 66.2907 305.98 66.5663 306.34 66.8486L308.183 68.3032L308.594 68.6353C308.68 68.7017 308.766 68.7681 308.849 68.8412L308.902 68.8777C313.896 72.8396 318.771 76.9476 323.339 81.3014L323.929 81.8659L323.99 81.9257C324.488 82.4039 324.985 82.8888 325.474 83.377C331.439 89.2484 336.784 95.5582 341.152 102.532C361.217 134.745 355.261 179.349 327.348 205.874Z" fill="#6C63FF"/>
<path d="M249 117.747C249 117.747 250.828 108.004 256.703 107.953L261 116.942L258.11 118.938C258.11 118.938 251.903 119.139 249 117.747Z" fill="#65617D"/>
<path opacity="0.1" d="M261 116.927L258.12 118.938C258.12 118.938 253.736 119.079 250.604 118.299C250.053 118.169 249.515 117.983 249 117.746C249 117.746 249 117.691 249.031 117.589C249.03 117.576 249.03 117.564 249.031 117.551C249.302 116.327 249.675 115.13 250.145 113.97C250.324 113.532 250.531 113.081 250.752 112.63C251.613 110.946 252.824 109.293 254.481 108.474C255.093 108.169 255.76 107.992 256.44 107.953H256.616H256.701L256.799 108.151L258.252 111.192L261 116.927Z" fill="black"/>
<path d="M308.376 159.216C308.376 159.216 314.389 158.586 314.919 159.059C315.448 159.532 318.863 161.961 320.886 160.431C322.909 158.901 321.559 153.574 321.559 153.363C321.559 153.151 321.366 145.61 321.366 145.61L317.758 140.283L313.235 130.95L304 129.944L304.239 144.765L304.193 152.359L308.376 159.216Z" fill="#65617D"/>
<path opacity="0.1" d="M308.376 159.216C308.376 159.216 314.389 158.586 314.919 159.059C315.448 159.532 318.863 161.961 320.886 160.431C322.909 158.901 321.559 153.574 321.559 153.363C321.559 153.151 321.366 145.61 321.366 145.61L317.758 140.283L313.235 130.95L304 129.944L304.239 144.765L304.193 152.359L308.376 159.216Z" fill="black"/>
<path d="M256 107.517C256 107.517 255.516 113.851 251.768 113.951C251.768 113.951 250.712 113.29 249.288 112.151C246.009 109.558 240.809 104.572 242.245 99.9317C244.307 93.2871 254.323 105.546 254.323 105.546L255.094 106.457L256 107.517Z" fill="#A5636D"/>
<path opacity="0.1" d="M256 107.091C256 107.091 255.518 113.845 251.783 113.951C251.783 113.951 250.731 113.246 249.311 112.032L249 111.57C249.631 111.945 250.327 112.157 251.039 112.194C251.972 112.215 253.024 111.841 253.7 110.296C254.09 109.427 254.434 108.532 254.73 107.616C254.906 107.079 255.032 106.522 255.104 105.954L256 107.091Z" fill="black"/>
<path d="M253.815 118.948L253.023 117.812L250.374 113.985L249 112.031C249.596 112.378 250.253 112.576 250.925 112.609C251.808 112.632 252.802 112.28 253.441 110.838C253.811 110.028 254.137 109.193 254.415 108.339C254.854 106.946 254.845 106.23 254.689 105.987C254.533 105.744 255.672 106.923 256.219 107.504L256.24 107.524L256.493 107.793L256.59 108.004L257.929 110.996C257.929 110.996 257.929 111.039 257.929 111.121C258.053 112.07 258.503 118.094 253.815 118.948Z" fill="#E7EFFD"/>
<path d="M307 77.6012L299.992 85.9629C299.992 85.9629 291 81.925 291.946 80.5791C292.313 80.0475 292.247 78.3684 292.042 76.5143C291.711 73.5835 291 70.2086 291 70.2086C291 70.2086 306.717 67.3518 305.389 70.3163C304.907 71.3964 304.988 72.6717 305.289 73.8292C305.676 75.1803 306.254 76.4537 307 77.6012Z" fill="#A5636D"/>
<path opacity="0.1" d="M305.917 70.3362C305.418 71.433 305.177 71.539 305.49 72.7281C303.36 75.2293 300.65 77.9663 297.282 77.9663C295.477 77.9699 293.696 77.5137 292.08 76.6337C291.737 73.6575 291 70.2303 291 70.2303C291 70.2303 307.294 67.3258 305.917 70.3362Z" fill="black"/>
<path d="M309 64.4254C309 67.7516 307.788 70.9416 305.632 73.2935C303.475 75.6455 300.55 76.9668 297.5 76.9668C294.45 76.9668 291.525 75.6455 289.368 73.2935C287.212 70.9416 286 67.7516 286 64.4254C286 64.3651 286 64.3048 286 64.2445C286.066 60.9509 287.318 57.818 289.485 55.5227C291.652 53.2274 294.56 51.9541 297.58 51.9779C300.601 52.0016 303.492 53.3206 305.628 55.6498C307.764 57.9789 308.974 61.1312 308.997 64.4254H309Z" fill="#A5636D"/>
<path opacity="0.1" d="M310 146.743C308.48 146.743 303.475 146.802 297.868 146.897H297.798L295.946 146.93H295.888C289.238 147.045 282.685 145.643 280.055 145.909C274.46 146.477 282.062 140.33 282.062 140.33C286.23 141.421 290.517 141.89 294.803 141.721L296.411 141.63C301.492 141.321 306.6 140.806 309.27 139.939C309.456 141.541 309.726 143.861 310 146.743Z" fill="black"/>
<path d="M310 146.743C308.48 146.743 303.475 146.798 297.868 146.897H297.798L295.946 146.93H295.888C289.238 147.045 282.685 145.643 280.055 145.909C274.46 146.474 282.062 140.33 282.062 140.33C286.23 141.421 290.517 141.888 294.803 141.718L296.411 141.63C301.492 141.321 306.6 140.803 309.27 139.939C309.456 141.541 309.726 143.868 310 146.743Z" fill="#5F5D7E"/>
<path opacity="0.1" d="M293.964 80.8605L284.951 85.3704L278 142.938C278 142.938 282.112 140.937 284.465 142.204C286.817 143.472 294.064 142.311 294.064 142.311C294.064 142.311 299.36 141.977 300.136 142.625C300.911 143.272 310.13 140.003 310.13 140.003C310.13 140.003 311.794 136.017 310.52 135.389C309.245 134.762 310.912 128.561 310.912 128.561L310.13 87.0282L308.572 81.6911L304.36 78.9658L300.051 82.6351L297.995 82.952L293.964 80.8605Z" fill="black"/>
<path d="M293.964 79.8444L284.954 84.3545L278 141.938C278 141.938 282.112 139.937 284.465 141.205C286.817 142.472 294.064 141.308 294.064 141.308C294.064 141.308 299.36 140.994 300.136 141.622C300.911 142.249 310.13 139 310.13 139C310.13 139 311.794 135.017 310.52 134.386C309.245 133.756 310.912 127.568 310.912 127.568L310.13 86.0325L308.572 80.6951L304.36 77.9663L300.051 81.6358L297.995 81.9494L293.964 79.8444Z" fill="#E7EFFD"/>
<path opacity="0.1" d="M294.155 82.8018C294.155 82.8018 296.816 86.0917 296.765 86.7729C296.714 87.4542 296.615 89.0692 296.615 89.0692L294.624 93.3029C294.624 93.3029 293.52 98.58 293.52 99.6766C293.52 100.773 291.766 110.281 291.766 110.281L289.66 124.902L287 144.077L289.708 148.935L292.917 146.114L297.176 111.952L298.079 105.213C298.079 105.213 299.036 93.0935 299.036 91.8407C299.036 90.5879 298.484 87.2947 298.484 87.2947C298.484 87.2947 299.138 84.1609 301.846 83.4299C304.555 82.6988 301.645 83.2704 301.645 83.2704L300.092 81.9644L298.736 82.5393C298.736 82.5393 294.959 81.3396 294.155 82.8018Z" fill="black"/>
<path d="M293.725 82.8018C293.725 82.8018 296.215 86.0919 296.17 86.7698C296.126 87.4478 296.027 89.0695 296.027 89.0695L294.146 93.3034C294.146 93.3034 293.112 98.5775 293.112 99.6742C293.112 100.771 291.467 110.282 291.467 110.282L289.491 124.905L287 144.077L289.539 148.935L292.547 146.114L296.538 111.954L297.384 105.214C297.384 105.214 298.281 93.0941 298.281 91.8378C298.281 90.5816 297.764 87.2949 297.764 87.2949C297.764 87.2949 298.362 84.1577 300.913 83.4266C303.463 82.6955 300.727 83.2704 300.727 83.2704L299.268 81.9644L298 82.5393C298 82.5393 294.478 81.3362 293.725 82.8018Z" fill="#6C63FF"/>
<path opacity="0.1" d="M292.051 76.9668C292.051 76.9668 291.64 77.2724 291.539 79.3174C291.438 81.3624 290 85.9629 290 85.9629C290 85.9629 295.332 82.2825 298 82.6922L292.051 76.9668Z" fill="black"/>
<path d="M292.051 75.967C292.051 75.967 291.64 76.3102 291.539 78.5789C291.438 80.8475 290 85.9628 290 85.9628C290 85.9628 295.332 81.8734 298 82.3286L292.051 75.967Z" fill="#E7EFFD"/>
<path opacity="0.1" d="M305.673 74.9675L298 82.5417C298 82.5417 304.469 86.8539 305.313 87.8944C306.156 88.9348 307 77.587 307 77.587L305.673 74.9675Z" fill="black"/>
<path d="M305.688 74.9675L298 82.5417C298 82.5417 304.468 86.854 305.312 87.8944C306.156 88.9348 307 77.5837 307 77.5837L305.688 74.9675Z" fill="#E7EFFD"/>
<path opacity="0.1" d="M291.852 77.0462C291.852 77.0462 290.99 76.5733 290.176 77.9356C289.363 79.2979 287.83 79.9341 287.83 79.9341C287.83 79.9341 279.11 81.4529 278.775 82.7086L274.704 82.9684C274.704 82.9684 273.266 83.1583 273.132 86.4891C272.998 89.82 272.218 90.0998 272.218 90.0998C272.218 90.0998 270.539 93.3473 270.694 95.0227C270.849 96.6981 269.399 97.5375 269.399 97.5375L275.399 114.538C275.399 114.538 275.591 121.556 274.484 124.121C273.378 126.686 271.322 138.05 271.322 138.05C271.322 138.05 272.184 137.841 272.135 138.47C272.087 139.1 271.081 145.958 271.081 145.958C271.081 145.958 270.795 148.679 270.316 149.622C269.838 150.564 269.789 155.487 269.789 155.487L269 159.048C269 159.048 270.828 163.498 273.601 162.868C276.374 162.239 281.407 150.354 281.407 150.354L284.616 137.527L287.108 124.854L287.827 116.267L288.976 97.2577L290.651 84.6905C290.651 84.6905 292.531 77.9356 291.852 77.0462Z" fill="black"/>
<path d="M291.855 76.0452C291.855 76.0452 290.992 75.5757 290.179 76.9377C289.365 78.2997 287.829 78.9358 287.829 78.9358C287.829 78.9358 279.109 80.4543 278.774 81.7098L274.702 81.9729C274.702 81.9729 273.264 82.1827 273.121 85.4795C272.977 88.7763 272.206 89.0927 272.206 89.0927C272.206 89.0927 270.53 92.3396 270.682 94.0146C270.835 95.6897 269.39 96.5256 269.39 96.5256L275.37 113.529C275.37 113.529 275.562 120.546 274.455 123.11C273.349 125.674 271.295 137.037 271.295 137.037C271.295 137.037 272.157 136.827 272.109 137.456C272.06 138.086 271.054 144.942 271.054 144.942C271.054 144.942 270.768 147.663 270.289 148.606C269.811 149.548 269.762 154.47 269.762 154.47L269 158.046C269 158.046 270.829 162.495 273.599 161.869C276.369 161.243 281.41 149.355 281.41 149.355L284.619 136.53L287.113 123.876L287.829 115.291L288.981 96.2891L290.657 83.7245C290.657 83.7245 292.525 76.9377 291.855 76.0452Z" fill="#65617D"/>
<path opacity="0.1" d="M261 116.806L258.192 118.938C258.192 118.938 253.918 119.087 250.864 118.26L249.307 117.497L249 117.345L249.322 117.457C250.935 117.986 252.195 117.975 253.179 117.609C257.137 116.138 256.699 108.916 256.551 107.282C256.551 107.12 256.527 107.015 256.521 106.974C256.52 106.967 256.52 106.96 256.521 106.954L256.545 106.994C256.598 107.094 256.658 107.188 256.726 107.276C256.781 107.349 256.841 107.418 256.904 107.482L258.299 110.57C258.299 110.57 258.299 110.614 258.299 110.699L261 116.806Z" fill="black"/>
<path d="M270.952 95.9585L269.568 96.384L269.37 99.4233C269.37 99.4233 267.738 99.1598 267.294 101.23C266.851 103.3 266.058 104.269 266.058 104.269C266.058 104.269 263.338 106.711 263.19 108.781L261.508 109.895C261.508 109.895 257.601 108.94 256.711 107.241C256.711 107.241 258.492 120.938 249 117.595C249 117.595 259.63 122.586 260.124 123.275C260.618 123.964 263.882 125.976 266.848 124.288C269.813 122.599 270.458 119.935 270.458 119.935C270.458 119.935 273.326 115.636 273.424 114.998C273.521 114.36 275.748 113.617 275.748 113.617L280 102.577L270.952 95.9585Z" fill="#65617D"/>
<path opacity="0.1" d="M304.945 81.8279L306.325 74.9675C306.325 74.9675 306.931 77.2025 307.563 77.7216C308.196 78.2407 309.61 79.4375 309.61 79.4375C309.61 79.4375 311.656 80.479 312.368 80.479C313.079 80.479 316.939 81.57 317.414 82.1321C317.89 82.6941 319.794 82.2875 319.794 82.2875C319.794 82.2875 321.365 82.8595 322.746 83.2231C324.126 83.5868 324.792 86.083 324.505 87.0683C324.39 87.5595 324.391 88.0745 324.507 88.5653C324.624 89.0561 324.852 89.5067 325.171 89.8752C325.743 90.5001 326.027 92.5202 326.027 92.5202C326.728 92.7695 327.311 93.3114 327.647 94.0278C328.122 95.1718 327.98 97.6647 327.98 97.6647L320.89 108.575C320.89 108.575 320.984 112.784 320.699 113.72C320.415 114.655 321.698 130.562 321.698 130.562L323.173 157.901C323.173 157.901 321.223 159.719 320.793 159.927C320.363 160.136 319.936 150.26 319.936 149.896C319.936 149.533 308.944 131.91 308.944 131.91C308.944 131.91 307.466 129.312 307.466 128.74C307.466 128.168 306.086 122.921 306.086 122.921L304 112.807L304.945 81.8279Z" fill="black"/>
<path d="M328.999 97.0907C328.999 97.4476 328.98 97.6856 328.98 97.6856L321.599 108.592C321.599 108.592 321.7 112.802 321.403 113.738C321.23 114.28 321.608 119.872 321.958 124.462C322.207 127.767 322.444 130.57 322.444 130.57L323.093 142.163L323.976 157.901C323.976 157.901 321.946 159.719 321.501 159.927C321.057 160.135 320.609 150.264 320.609 149.897C320.609 149.53 309.152 131.915 309.152 131.915C309.152 131.915 307.616 129.314 307.616 128.742C307.616 128.17 306.179 122.922 306.179 122.922L304 112.792L304.99 81.8253L305.832 74.9675C305.832 74.9675 307.071 77.205 307.723 77.7205C308.376 78.2361 309.852 79.4358 309.852 79.4358C309.852 79.4358 311.983 80.4768 312.727 80.4768C313.471 80.4768 317.485 81.5675 317.983 82.1293C318.481 82.6911 320.461 82.2846 320.461 82.2846C320.461 82.2846 322.094 82.8564 323.532 83.2199C324.969 83.5835 325.663 86.0787 325.367 87.0636C325.246 87.5546 325.247 88.0696 325.368 88.5603C325.489 89.0511 325.727 89.5015 326.06 89.8694C326.653 90.4908 326.952 92.5134 326.952 92.5134C327.682 92.7635 328.288 93.305 328.639 94.0204C328.977 94.8401 329.008 96.281 328.999 97.0907Z" fill="#65617D"/>
<path opacity="0.1" d="M276 236.722C275.34 237.13 274.678 237.509 274.015 237.897C271.939 236.979 270 235.897 270 235.897C272.008 236.006 274.011 236.281 276 236.722Z" fill="black"/>
<path opacity="0.1" d="M299 208.909C299 208.909 304.667 210.695 305 211.908L299 208.909Z" fill="black"/>
<path opacity="0.1" d="M277.055 213.907C277.055 213.907 274.732 214.771 276.981 216.498C279.23 218.225 277.055 213.907 277.055 213.907Z" fill="black"/>
<path opacity="0.1" d="M290 162.929C290.351 162.929 295.824 161.435 297.731 162.1C299.637 162.766 302 162.763 302 162.763L290 162.929Z" fill="black"/>
<path opacity="0.1" d="M291 168.839L290.947 169.363L286.345 182.223C286.345 182.223 285.604 186.124 284.961 188.338C284.557 189.843 284.236 191.371 284 192.916L288.081 165.928L291 168.839Z" fill="black"/>
<path d="M298 146.899L296.145 146.936H296.087L295 141.043C295.533 141.013 296.072 140.98 296.611 140.939L298 146.899Z" fill="#3F3D56"/>
<path d="M321 140.132L319.764 141.244L315.643 144.951C315.643 144.951 304.459 151.446 301.379 145.274C298.662 139.839 311.343 135.96 314.397 135.114C314.812 135 315.049 134.941 315.049 134.941L321 140.132Z" fill="#A5636D"/>
<path opacity="0.1" d="M274 88.9614C274 88.9614 276.398 90.0697 276.942 91.6178C277.487 93.1658 274 88.9614 274 88.9614Z" fill="black"/>
<path opacity="0.1" d="M268 104.955C268 104.955 265.111 109.114 266.277 110.723C267.443 112.331 268 104.955 268 104.955Z" fill="black"/>
<path opacity="0.1" d="M323 90.9604C323 90.9604 320.098 91.2695 320 93.9591L323 90.9604Z" fill="black"/>
<path opacity="0.1" d="M296 133.942C296.325 133.632 303.364 123.076 305 124.004L296 133.942Z" fill="black"/>
<path opacity="0.1" d="M309 64.4176C309.002 66.4838 308.534 68.5182 307.639 70.339H307.553C306.824 70.1713 306.446 69.2459 305.89 68.6625C305.547 68.3074 305.112 68.078 304.644 68.0065C304.176 67.9349 303.699 68.0248 303.281 68.2635C302.857 68.5393 302.513 68.9389 302.286 69.417C302.06 69.8952 301.96 70.4328 301.999 70.9694C301.63 69.2929 301.747 67.4856 301.385 65.7957C301.022 64.1058 299.943 62.3924 298.462 62.3622C297.823 62.3622 297.079 62.6204 296.618 62.0973C296.338 61.7821 296.283 61.2859 296.074 60.9036C295.014 59.036 291.793 59.9815 290.478 60.9405C289.162 61.8995 287.635 63.4284 286 64.2499C286.066 60.9549 287.318 57.8206 289.485 55.5243C291.652 53.228 294.56 51.9541 297.58 51.9779C300.601 52.0016 303.492 53.3212 305.628 55.6514C307.764 57.9816 308.974 61.1353 308.997 64.431L309 64.4176Z" fill="black"/>
<path d="M296.052 61.1536C296.261 61.5264 296.317 62.0105 296.597 62.318C297.059 62.8249 297.805 62.5633 298.446 62.5764C299.931 62.6025 301.015 64.2739 301.376 65.9223C301.736 67.5708 301.619 69.3239 301.992 70.9691C301.954 70.4463 302.054 69.9225 302.281 69.4567C302.508 68.991 302.853 68.6017 303.277 68.3329C303.696 68.0998 304.174 68.0121 304.642 68.0819C305.111 68.1517 305.547 68.3756 305.89 68.7221C306.447 69.2847 306.814 70.1874 307.56 70.3575C308.305 70.5276 308.996 69.7753 309.26 68.9576C309.525 68.1399 309.504 67.2437 309.676 66.3966C310.006 64.7907 310.992 63.4758 311.525 61.9516C312.175 60.0959 312.157 58.051 311.476 56.2082C311.112 55.227 310.573 54.3733 310.203 53.4084C309.649 51.9431 309.501 50.2914 308.823 48.8948C307.683 46.5562 304.996 45.3885 302.79 46.2782C301.736 46.7001 300.821 47.5145 299.752 47.8776C298.322 48.3649 296.791 47.9986 295.309 47.7794C293.827 47.5603 292.188 47.5407 290.996 48.5742C289.624 49.7648 289.249 52.002 287.961 53.3103C287.418 53.8598 286.747 54.2098 286.177 54.7167C285.607 55.2237 285.114 55.9792 285.178 56.8035C285.265 57.8697 286.248 58.8379 285.884 59.8224C285.753 60.1088 285.57 60.3646 285.345 60.5747C284.267 61.7764 283.464 63.2258 283 64.8103C285.594 65.6705 288.398 62.6352 290.429 61.2124C291.763 60.2541 294.992 59.3285 296.052 61.1536Z" fill="#4C3E42"/>
<path opacity="0.1" d="M321 139.881L319.729 140.939C318.607 139.056 314 135.298 314 135.298L314.198 135.105C314.624 134.997 314.868 134.941 314.868 134.941L321 139.881Z" fill="black"/>
<path d="M322 138.484C322 138.484 321.595 139.595 321.179 140.556C320.762 141.518 320.317 142.388 320.282 141.68C320.236 140.28 315 135.589 315 135.589L315.709 134.827L316.534 133.942L322 138.484Z" fill="#E7EFFD"/>
<path opacity="0.1" d="M322.388 130.798L323 141.938C321.549 139.528 317.563 133.345 315 133.545L321.216 125.924C321.476 125.617 321.714 125.29 321.93 124.946C322.165 128.115 322.388 130.798 322.388 130.798Z" fill="black"/>
<path opacity="0.1" d="M322 138.746C322 138.746 321.548 139.922 321.084 140.939C319.329 138.414 316.921 135.436 315 134.879L315.919 133.942L322 138.746Z" fill="black"/>
<path d="M327.12 95.9585L328.88 97.4262C328.88 97.4262 331.811 97.4795 332.103 100.095C332.395 102.71 335.084 103.924 335.084 103.924C335.084 103.924 337.089 106.072 337.089 107.069C337.089 108.067 338.603 109.848 338.603 110.005C338.603 110.161 340.07 113.36 339.874 113.937C339.678 114.514 341.429 117.033 340.9 117.977C340.459 118.823 340.067 119.699 339.728 120.599C339.728 120.599 337.431 125.318 336.256 126.209C335.081 127.1 329.709 134.598 329.709 134.598C329.709 134.598 323.943 141.73 323.943 143.938C323.943 143.938 318.323 133.868 315 134.131L321.5 126.109C321.5 126.109 322.622 124.798 322.672 124.011C322.722 123.224 325.799 119.605 327.266 119.448C327.266 119.448 327.509 117.296 326.875 117.246C326.24 117.196 325.703 115.515 325.703 115.515C325.703 115.515 321.4 110.061 321.351 106.599C321.301 103.137 327.12 95.9585 327.12 95.9585Z" fill="#65617D"/>
<path opacity="0.1" d="M329 100.956C329 100.956 325.323 104.616 326.111 105.8C326.898 106.984 329 100.956 329 100.956Z" fill="black"/>
<path opacity="0.1" d="M330 113.951C330 113.951 337.265 111.702 338 113.951H330Z" fill="black"/>
<path opacity="0.1" d="M276 99.9565C276 99.9565 276 112.626 275.219 113.877C274.438 115.128 276 99.9565 276 99.9565Z" fill="black"/>
<path opacity="0.1" d="M320 103.955L320.95 108.953C320.95 108.953 321.328 104.049 320 103.955Z" fill="black"/>
<g opacity="0.1">
<path opacity="0.1" d="M285.86 58.5483C286.213 57.5668 285.289 56.6052 285.166 55.5537C285.044 55.8505 284.992 56.1748 285.012 56.4987C285.074 57.2939 285.626 58.0326 285.759 58.7679C285.799 58.6983 285.832 58.6248 285.86 58.5483Z" fill="black"/>
<path opacity="0.1" d="M301.873 69.8145C301.526 68.1509 301.627 66.4173 301.277 64.7703C300.927 63.1233 299.837 61.3897 298.356 61.3631C297.717 61.3631 296.974 61.616 296.513 61.1003C296.233 60.7875 296.178 60.2951 295.969 59.9157C294.913 58.0624 291.693 59.0007 290.376 59.9523C288.4 61.3731 285.688 64.3477 283.154 63.6756C283.034 63.9917 282.92 64.3111 282.825 64.6405C285.412 65.5156 288.207 62.4279 290.231 60.9805C291.549 60.0322 294.765 59.0906 295.825 60.9472C296.034 61.3265 296.089 61.819 296.369 62.1317C296.829 62.6475 297.573 62.3813 298.212 62.3946C299.692 62.4212 300.773 64.1215 301.133 65.7984C301.492 67.4754 301.376 69.2589 301.747 70.9325C301.72 70.5545 301.763 70.1743 301.873 69.8145Z" fill="black"/>
<path opacity="0.1" d="M309.134 67.8513C308.87 68.6832 308.182 69.4451 307.439 69.2754C306.695 69.1057 306.333 68.1907 305.777 67.6118C305.434 67.2604 304.998 67.0337 304.531 66.9633C304.063 66.8929 303.587 66.9824 303.169 67.2192C302.766 67.479 302.435 67.8508 302.21 68.2961C301.985 68.7413 301.873 69.2437 301.888 69.7512C302.082 69.1122 302.487 68.5732 303.025 68.2373C303.442 68.0002 303.918 67.9109 304.386 67.9819C304.853 68.053 305.288 68.2807 305.629 68.6332C306.185 69.2055 306.551 70.1239 307.294 70.2969C308.038 70.4699 308.726 69.7046 308.99 68.8728C309.126 68.3829 309.215 67.8788 309.254 67.3689C309.222 67.5319 309.182 67.6929 309.134 67.8513Z" fill="black"/>
<path opacity="0.1" d="M311.405 60.7277C310.862 62.2782 309.869 63.6157 309.562 65.2461C309.495 65.5788 309.458 65.9115 309.421 66.2443C309.75 64.6206 310.729 63.2863 311.264 61.7392C311.506 61.0424 311.656 60.3121 311.709 59.5698C311.636 59.9639 311.535 60.3511 311.405 60.7277Z" fill="black"/>
</g>
<path d="M241.5 98.9572C241.776 98.9572 242 98.7334 242 98.4574C242 98.1813 241.776 97.9575 241.5 97.9575C241.224 97.9575 241 98.1813 241 98.4574C241 98.7334 241.224 98.9572 241.5 98.9572Z" fill="#E6E8EC"/>
<path d="M145 171.59C145 171.59 148.433 168.736 152 170.505C152 170.505 151.001 172.957 146.57 172.925L145 171.59Z" fill="#6C63FF"/>
<path d="M145.109 171.925C145.109 171.925 144.417 176.17 146.521 178.922C146.521 178.922 147.697 177.126 146.363 172.945L145.109 171.925Z" fill="#6C63FF"/>
<path d="M140 167.623C140 167.623 140.128 164.23 147.999 165.059C147.999 165.059 148.124 167.244 145.416 168.38C142.708 169.516 141.416 168.693 140 167.623Z" fill="#6C63FF"/>
<path d="M139.5 167.927C139.5 167.927 136.151 169.198 139.462 176.923C139.462 176.923 141.695 176.311 141.963 173.175C142.231 170.039 141.012 169.018 139.5 167.927Z" fill="#6C63FF"/>
<path d="M135.013 162.561C135.013 162.561 134.383 156.654 141.975 156.942C141.975 156.942 142.699 162.283 136.4 163.929L135.013 162.561Z" fill="#6C63FF"/>
<path d="M130 156.135C130 156.135 130.762 148.294 137.999 150.248C137.999 150.248 138.217 156.998 131.222 157.932L130 156.135Z" fill="#6C63FF"/>
<path d="M126 148.837C126 148.837 127.496 142.635 135 144.187C135 144.187 133.434 149.759 126.529 149.935L126 148.837Z" fill="#6C63FF"/>
<path d="M122 141.888C122 141.888 123.512 135.609 131 137.198C131 137.198 128.751 143.193 122.535 142.929L122 141.888Z" fill="#6C63FF"/>
<path d="M119 135.636C119 135.636 120.037 126.455 127 128.154C127 128.154 125.268 136.549 119.556 136.94L119 135.636Z" fill="#6C63FF"/>
<path d="M117 127.739C117 127.739 118.247 119.109 125 121.305C125 121.305 122.653 129.512 117.513 128.913L117 127.739Z" fill="#6C63FF"/>
<path d="M115 120.31C115 120.31 117.348 111.948 123 111.951C123 111.951 120.608 120.779 115.535 121.947L115 120.31Z" fill="#6C63FF"/>
<path d="M114 113.275C114 113.275 116.469 102.344 121 102.982C121 102.982 119.318 111.328 114.21 114.95L114 113.275Z" fill="#6C63FF"/>
<path d="M113 104.621C113 104.621 115.425 95.5066 120 94.959C120 94.959 118.444 103.89 113.188 106.954L113 104.621Z" fill="#6C63FF"/>
<path d="M112 96.4849C112 96.4849 115.039 87.2932 118 86.9624C118 86.9624 116.85 95.9348 112.346 97.9576L112 96.4849Z" fill="#6C63FF"/>
<path d="M112 89.2769C112 89.2769 113.481 79.8584 116 78.9658C116 78.9658 115.89 86.6156 112.278 89.9612L112 89.2769Z" fill="#6C63FF"/>
<path d="M110 79.0946C110 79.0946 111.783 71.2511 114 69.9697C114 69.9697 113.851 79.1256 110.586 80.9651L110 79.0946Z" fill="#6C63FF"/>
<path d="M109.051 72.736L108 59.9741C108 59.9741 113.584 69.4417 109.516 74.9677L109.051 72.736Z" fill="#6C63FF"/>
<path d="M105.193 59.9401C105.193 59.9401 101.761 50.4817 101 49.9785C101 49.9785 107.289 55.9376 106.99 63.9724L105.193 59.9401Z" fill="#6C63FF"/>
<path d="M134.771 162.937C134.771 162.937 129.593 162.38 130.026 170.909C130.026 170.909 134.711 171.572 136 164.461L134.771 162.937Z" fill="#6C63FF"/>
<path d="M129.672 155.932C129.672 155.932 123.241 156.178 124.075 164.905C124.075 164.905 129.507 165.73 131 157.521L129.672 155.932Z" fill="#6C63FF"/>
<path d="M125.44 149.4C125.44 149.4 119.476 146.652 116 154.526C116 154.526 121.498 156.794 126 150.624L125.44 149.4Z" fill="#6C63FF"/>
<path d="M121.459 142.422C121.459 142.422 115.288 139.841 112 146.608C112 146.608 118.393 148.439 122 143.455L121.459 142.422Z" fill="#6C63FF"/>
<path d="M119.678 135.694C119.678 135.694 113.521 129.139 109 136.263C109 136.263 115.249 141.601 120 137.2L119.678 135.694Z" fill="#6C63FF"/>
<path d="M116.763 127.621C116.763 127.621 111.09 121.107 107 128.409C107 128.409 113.305 133.671 117 129.031L116.763 127.621Z" fill="#6C63FF"/>
<path d="M115.988 120.055C115.988 120.055 111.224 112.276 106 114.281C106 114.281 110.945 122.526 116 121.915L115.988 120.055Z" fill="#6C63FF"/>
<path d="M113.83 113.244C113.83 113.244 109.1 103.252 105 105.208C105 105.208 108.424 112.896 114 114.95L113.83 113.244Z" fill="#6C63FF"/>
<path d="M113.459 103.924C113.459 103.924 108.424 97.0294 104 98.0631C104 98.0631 108.166 105.088 114 105.954L113.459 103.924Z" fill="#6C63FF"/>
<path d="M113 96.4878C113 96.4878 109.004 87.9211 106 87.9621C106 87.9621 108.08 96.5492 112.802 97.9576L113 96.4878Z" fill="#6C63FF"/>
<path d="M112 89.1212C112 89.1212 107.886 79.846 105 79.9665C105 79.9665 107.21 87.96 111.897 89.9611L112 89.1212Z" fill="#6C63FF"/>
<path d="M111 79.9825C111 79.9825 107.614 72.6985 105 71.9688C105 71.9688 106.88 80.9371 110.728 81.9644L111 79.9825Z" fill="#6C63FF"/>
<path d="M108.967 72.881L102 61.9731C102 61.9731 104.066 72.9349 110 74.9675L108.967 72.881Z" fill="#6C63FF"/>
<path d="M103.549 61.0162C103.549 61.0162 95.3166 54.9911 95 53.9766C95 53.9766 99.3884 62.735 107 63.9722L103.549 61.0162Z" fill="#6C63FF"/>
<path d="M102.816 57.9749C102.816 57.9749 94.1366 48.8745 92 48.9797C92 48.9797 98.911 49.0407 103 57.4593L102.816 57.9749Z" fill="#6C63FF"/>
<path d="M111 80.9044L110.676 80.965C108.509 66.6486 105.793 58.2472 103 57.3118L103.095 56.9753C106.046 57.9578 108.778 66.2381 111 80.9044Z" fill="#444053"/>
<path d="M115 114.884L114.405 114.95C114.222 113.621 114.068 112.272 113.941 110.923C112.863 99.182 111.512 88.4142 110 80.3574L110.329 79.9653C111.826 88.0354 113.462 99.1222 114.543 110.864C114.663 112.222 114.82 113.575 115 114.884Z" fill="#444053"/>
<path d="M154.759 177.923C154.669 177.883 145.817 174.053 136.427 164.422C130.929 158.786 126.293 152.247 122.692 145.047C118.19 136.046 115.242 124.872 114 113.951L114.525 114.191C117.306 138.699 128.288 155.081 136.862 163.882C146.16 173.426 154.913 177.216 155 177.259L154.759 177.923Z" fill="#444053"/>
<g opacity="0.7">
<path opacity="0.7" d="M160.609 167.021C160.609 167.021 164.56 165.607 167.459 168.282C167.459 168.282 165.902 170.122 161.746 168.685L160.609 167.021Z" fill="#6C63FF"/>
<path opacity="0.7" d="M160.164 167.028C160.164 167.028 158.094 170.941 159.937 174.554C159.937 174.554 161.912 173.266 161.442 168.565L160.164 167.028Z" fill="#6C63FF"/>
<path opacity="0.7" d="M156.988 161.764C156.988 161.764 158.131 158.254 165.282 161.628C165.282 161.628 164.741 163.957 161.848 164.289C158.954 164.622 158.002 163.331 156.988 161.764Z" fill="#6C63FF"/>
<path opacity="0.7" d="M156.54 161.621C156.54 161.621 153.109 161.797 154.033 170.202C154.033 170.202 156.239 170.308 157.36 167.4C158.481 164.492 157.63 163.105 156.54 161.621Z" fill="#6C63FF"/>
<path opacity="0.7" d="M153.575 155.299C153.575 155.299 154.62 149.283 162.096 152.118C162.096 152.118 161.307 157.608 154.57 157.109L153.575 155.299Z" fill="#6C63FF"/>
<path opacity="0.7" d="M150.193 147.164C150.193 147.164 152.906 140.792 160.023 145.014C160.023 145.014 158.613 150.794 151.032 149.117L150.193 147.164Z" fill="#6C63FF"/>
<path opacity="0.7" d="M148.224 139.208C148.224 139.208 151.603 133.203 158.668 137.375C158.668 137.375 155.412 142.698 148.426 140.556L148.224 139.208Z" fill="#6C63FF"/>
<path opacity="0.7" d="M146.402 131.469C146.402 131.469 149.8 125.22 156.585 129.379C156.585 129.379 152.552 135.079 146.596 132.76L146.402 131.469Z" fill="#6C63FF"/>
<path opacity="0.7" d="M145.736 124.428C145.736 124.428 149.115 116.56 155.455 120.376C155.455 120.376 151.606 127.307 145.933 125.776L145.736 124.428Z" fill="#6C63FF"/>
<path opacity="0.7" d="M145.542 116.104C145.542 116.104 149.197 108.244 155.467 112.676C155.467 112.676 150.807 119.75 145.736 117.391L145.542 116.104Z" fill="#6C63FF"/>
<path opacity="0.7" d="M146.021 108.547C146.021 108.547 150.605 100.961 155.87 102.741C155.87 102.741 151.111 110.78 146.04 110.347L146.021 108.547Z" fill="#6C63FF"/>
<path opacity="0.7" d="M146.937 101.304C146.937 101.304 152.159 92.0838 156.299 94.1268C156.299 94.1268 152.5 101.227 146.7 102.907L146.937 101.304Z" fill="#6C63FF"/>
<path opacity="0.7" d="M148.553 92.8026C148.553 92.8026 153.191 85.2063 157.547 86.1246C157.547 86.1246 153.76 93.8274 148.104 95.002L148.553 92.8026Z" fill="#6C63FF"/>
<path opacity="0.7" d="M149.971 84.8703C149.971 84.8703 155.246 77.4471 158.118 78.086C158.118 78.086 154.68 85.9051 149.913 86.3243L149.971 84.8703Z" fill="#6C63FF"/>
<path opacity="0.7" d="M151.425 77.517C151.425 77.517 155.648 69.0158 158.659 69.089C158.659 69.089 156.423 76.409 151.538 78.2789L151.425 77.517Z" fill="#6C63FF"/>
<path opacity="0.7" d="M152.73 67.7214C152.73 67.7214 156.595 61.0936 159.157 60.6577C159.157 60.6577 156.576 69.0523 152.82 69.6412L152.73 67.7214Z" fill="#6C63FF"/>
<path opacity="0.7" d="M153.4 61.23L156.165 48.3566C156.165 48.3566 158.029 59.2269 153.154 63.5724L153.4 61.23Z" fill="#6C63FF"/>
<path opacity="0.7" d="M153.261 47.5913C153.261 47.5913 152.512 37.3799 151.9 36.6445C151.9 36.6445 156.425 44.4504 153.897 52.0499L153.261 47.5913Z" fill="#6C63FF"/>
<path opacity="0.7" d="M153.378 155.186C153.378 155.186 148.156 152.833 146.258 161.175C146.258 161.175 150.93 163.468 154.244 157.086L153.378 155.186Z" fill="#6C63FF"/>
<path opacity="0.7" d="M149.993 146.864C149.993 146.864 143.748 145.014 142.145 153.639C142.145 153.639 147.136 156.191 150.831 148.827L149.993 146.864Z" fill="#6C63FF"/>
<path opacity="0.7" d="M148.028 139.741C148.028 139.741 143.073 135.196 137.584 141.574C137.584 141.574 142.225 145.51 148.228 141.088L148.028 139.741Z" fill="#6C63FF"/>
<path opacity="0.7" d="M146.258 131.496C146.258 131.496 141.214 126.728 135.989 133.006C135.989 133.006 141.478 137.032 146.452 132.79L146.258 131.496Z" fill="#6C63FF"/>
<path opacity="0.7" d="M145.764 124.631C145.764 124.631 141.614 117.208 135.694 121.753C135.694 121.753 140.219 128.188 145.699 125.992L145.764 124.631Z" fill="#6C63FF"/>
<path opacity="0.7" d="M145.911 115.997C145.911 115.997 141.758 108.434 135.774 113.335C135.774 113.335 140.88 120.04 145.788 117.305L145.911 115.997Z" fill="#6C63FF"/>
<path opacity="0.7" d="M146.654 108.477C146.654 108.477 144.163 99.8266 138.649 99.9763C138.649 99.9763 141.196 109.12 146.175 110.201L146.654 108.477Z" fill="#6C63FF"/>
<path opacity="0.7" d="M147.075 101.294C147.075 101.294 145.026 90.7064 140.495 91.1157C140.495 91.1157 141.859 99.191 146.798 102.891L147.075 101.294Z" fill="#6C63FF"/>
<path opacity="0.7" d="M148.968 92.4133C148.968 92.4133 146.304 83.7623 141.875 83.4296C141.875 83.4296 143.693 91.9342 148.872 94.6526L148.968 92.4133Z" fill="#6C63FF"/>
<path opacity="0.7" d="M150.488 84.8437C150.488 84.8437 149.059 75.6071 146.246 74.7054C146.246 74.7054 145.883 83.3564 149.91 86.158L150.488 84.8437Z" fill="#6C63FF"/>
<path opacity="0.7" d="M151.624 77.3772C151.624 77.3772 149.833 67.9211 146.931 67.0626C146.931 67.0626 147.133 74.7586 151.314 78.0792L151.624 77.3772Z" fill="#6C63FF"/>
<path opacity="0.7" d="M153.222 68.4136C153.222 68.4136 152.045 60.6776 149.843 59.1936C149.843 59.1936 149.195 68.0143 152.445 70.1471L153.222 68.4136Z" fill="#6C63FF"/>
<path opacity="0.7" d="M153.117 60.8905L149.311 48.3301C149.311 48.3301 148.344 59.34 153.553 63.1996L153.117 60.8905Z" fill="#6C63FF"/>
<path opacity="0.7" d="M151.566 48.0173C151.566 48.0173 145.45 40.1981 145.423 39.2133C145.423 39.2133 147.294 48.197 154.024 51.6641L151.566 48.0173Z" fill="#6C63FF"/>
<path opacity="0.7" d="M151.744 45.3588C151.744 45.3588 145.358 33.8496 143.144 33.2141C143.144 33.2141 150.172 35.6497 152.052 44.9395L151.744 45.3588Z" fill="#6C63FF"/>
<path opacity="0.7" d="M152.804 69.7211L152.479 69.6712C154.285 55.4537 153.947 46.6364 151.526 44.8497L151.714 44.5569C154.279 46.4501 154.656 55.1476 152.804 69.7211Z" fill="#444053"/>
<path opacity="0.7" d="M146.992 103.287L146.507 103.19C146.728 101.876 146.977 100.529 147.253 99.2176C149.637 87.7085 151.554 77.0545 152.57 68.9392L152.936 68.6531C151.904 76.7683 150.122 87.7983 147.732 99.3207C147.462 100.652 147.21 101.979 146.992 103.287Z" fill="#444053"/>
<path opacity="0.7" d="M167.837 176.158C167.763 176.095 160.41 169.603 154.14 157.422C150.461 150.291 147.849 142.574 146.403 134.557C144.596 124.535 144.867 112.929 146.676 102.142L147.109 102.538C143.039 126.787 148.952 145.913 154.687 157.046C160.895 169.117 168.163 175.539 168.237 175.602L167.837 176.158Z" fill="#444053"/>
</g>
<path d="M94.2596 145.313C93.5427 145.635 92.7979 145.878 92.0364 146.038C90.7058 146.309 89.3554 146.448 88.0017 146.453C88.0413 146.842 88.0718 147.204 88.1023 147.533C88.1755 148.438 88.2182 149.059 88.2182 149.059L86.7879 148.953L74.9918 148.075L68.0934 146.962C68.4264 147.449 68.788 147.912 69.176 148.348C69.5779 148.811 70.0428 149.205 70.5545 149.515C70.5545 149.515 76.7789 155.009 77.8554 155.059C78.0079 155.059 78.0567 155.225 78.0323 155.488C80.652 155.488 88.7977 155.903 86.5378 160.846C86.164 161.727 85.5048 162.427 84.6867 162.811C82.0731 164.017 78.1299 161.847 76.0988 160.514C75.9006 160.936 75.7115 161.328 75.5438 161.664C75.1991 162.372 74.9582 162.841 74.9582 162.841L74.7539 162.681L64.2874 154.557L61.994 152.436C61.3204 152.403 60.6533 152.277 60.0087 152.061L59.7037 151.954C59.6905 151.983 59.6793 152.013 59.6702 152.044C59.5867 152.304 59.5244 152.57 59.4842 152.842C59.4842 152.882 59.4842 152.922 59.4842 152.962C59.4414 153.271 59.4129 153.583 59.3988 153.896C59.3988 154.108 59.3835 154.334 59.3835 154.56C59.3652 159.088 61.0303 166.364 61.0303 166.364C61.0303 166.364 65.3456 178.361 63.8147 181.129C63.7358 181.27 63.6321 181.392 63.5097 181.488C62.9699 181.914 62.6467 182.672 62.4789 183.573C61.9086 186.511 62.9089 190.995 62.9089 190.995C62.9089 190.995 62.8175 191.161 62.6619 191.421C62.3254 192.007 61.946 192.563 61.5274 193.083C61.4634 193.163 61.3963 193.246 61.3262 193.322C61.1373 193.538 60.9334 193.738 60.7162 193.92C60.7559 194.05 60.7986 194.183 60.8413 194.326C60.884 194.469 60.9389 194.692 60.9815 194.891C61.3212 196.525 61.188 198.233 60.6003 199.781C60.2006 200.909 59.9421 202.091 59.8318 203.294C59.6335 205.498 59.6857 207.72 59.9874 209.909C59.9416 209.882 59.902 209.856 59.8562 209.833C56.4833 207.911 53.1581 205.905 49.8807 203.813C48.9201 203.208 47.9655 202.59 47.0171 201.968C45.8501 201.201 44.6881 200.426 43.5313 199.641C42.0065 198.604 40.4816 197.54 38.9568 196.453L38.2432 195.935L37.9687 195.732C37.5814 195.449 37.2002 195.167 36.8159 194.881C35.2392 192.66 33.7987 190.328 32.5037 187.901C32.2871 187.478 32.092 187.076 31.9303 186.707V186.687L31.8266 186.445L31.3966 186.278C30.5885 185.969 30.0761 185.753 30.0761 185.753C30.4491 184.27 30.6278 182.737 30.6068 181.199C30.5824 178.208 29.823 174.219 26.694 171.021C22.0707 166.258 21.4333 161.554 21.3663 159.749C21.3663 159.623 21.3663 159.51 21.3663 159.417C21.3647 159.265 21.3708 159.113 21.3846 158.961L21.7383 158.592C20.8417 158.396 20 158.307 20 158.307C20 158.307 23.068 146.207 28.2341 142.168C30.7959 140.174 32.9276 136.85 34.4341 133.998C37.1824 128.844 40.2686 123.912 43.6685 119.242L44.5987 117.963L44.8701 117.587L44.9281 117.511L45.0012 117.404C44.8752 117.196 44.7471 116.99 44.617 116.786L44.5316 116.65C44.126 115.985 43.7783 115.32 43.8332 114.526C43.8332 114.526 43.8332 114.509 43.8332 114.502C43.8332 114.446 43.8332 114.393 43.8332 114.333C43.8462 114.2 43.8686 114.069 43.9003 113.941C43.9107 113.962 43.923 113.982 43.9369 114C44.373 112.618 46.0534 112.006 47.2916 111.241C50.2101 109.453 51.4544 105.541 52.0795 101.901C52.5644 99.0688 52.967 95.8944 54.9798 94.0761C56.2789 92.906 58.0295 92.5205 59.3439 91.3604C60.1044 90.6279 60.7331 89.7475 61.1981 88.7643C61.503 88.1992 61.7653 87.6142 62.0489 87.0491C63.3481 84.4896 65.0559 82.1096 67.3157 80.5772C69.5755 79.0448 72.4422 78.4498 74.9186 79.4802C75.8731 79.8758 76.7484 80.4774 77.6633 80.9195C78.2282 81.1707 78.8118 81.3686 79.4077 81.5112C81.271 81.9866 83.232 82.1096 84.9825 82.9572C87.8279 84.3333 89.679 87.3782 91.3685 90.2701C92.2438 91.7659 93.6192 93.9531 94.3999 96.1536C94.3999 96.0739 94.3999 96.0007 94.3999 95.9243C94.7764 96.8933 94.9832 97.9305 95.0098 98.9824C95.0251 99.4302 94.9809 99.878 94.8787 100.312C94.5981 101.442 93.8815 102.157 92.9818 102.682L92.8385 102.759C92.6461 102.866 92.4486 102.963 92.2468 103.048C92.2163 103.231 92.1828 103.417 92.1462 103.596C92.1309 103.673 92.1126 103.752 92.0944 103.829C92.0547 104.015 92.009 104.198 91.9602 104.381C91.3083 106.756 90.0368 108.874 88.3006 110.477C87.0981 111.598 85.7085 112.456 84.2079 113.003C84.1011 113.043 83.9883 113.073 83.8816 113.11C83.7909 113.388 83.6612 113.649 83.4973 113.884C83.3785 114.05 83.2389 114.196 83.0826 114.32C82.9852 114.391 82.8833 114.456 82.7776 114.512C82.7517 114.53 82.7241 114.545 82.6952 114.556C81.5974 115.094 80.0939 114.672 79.0356 113.867C78.9807 113.828 78.9289 113.781 78.877 113.738C78.877 113.927 78.8496 114.127 78.8191 114.333C78.7886 114.539 78.7673 114.665 78.7337 114.838C78.7002 115.011 78.688 115.094 78.6666 115.217C78.6453 115.34 78.63 115.423 78.6117 115.52L78.5751 115.689C77.971 118.897 76.8185 121.953 75.1778 124.697C74.9399 125.09 74.6823 125.469 74.4062 125.831L73.6499 127.087V127.257C73.7932 130.149 72.921 132.844 71.689 135.165C71.2764 135.934 70.8233 136.676 70.3319 137.388L70.5026 137.498C72.2105 138.558 75.5773 140.443 77.706 140.284C77.706 140.284 85.7571 141.417 86.6903 140.849C86.8184 140.769 86.9434 140.879 87.0593 141.115C88.3615 140.25 91.3563 138.419 93.7198 138.176C95.3727 138.003 96.7177 138.605 96.9677 140.835C97.2178 143.066 95.9857 144.505 94.2596 145.313Z" fill="url(#paint0_linear)"/>
<path d="M50.056 190.943C50.5862 191.915 50.9025 193.004 50.9808 194.127C51.0591 195.251 50.8973 196.378 50.5077 197.424C49.7454 199.476 49.6607 202.034 49.7391 203.911C48.751 203.298 47.7691 202.671 46.7936 202.041C45.5932 201.264 44.398 200.477 43.2081 199.682C41.6396 198.631 40.0711 197.552 38.5027 196.45L37.7686 195.924L37.4863 195.719C37.4617 195.67 37.4311 195.624 37.3953 195.584C36.975 195.105 34.5251 191.331 33.0695 188.466C32.806 187.94 32.577 187.455 32.3951 187.01V186.987C32.0814 186.239 31.934 185.639 32.0281 185.366C32.1421 184.936 32.3356 184.536 32.5971 184.188C32.8585 183.841 33.1824 183.553 33.5495 183.344C35.3564 182.333 38.2549 183.266 41.122 184.752C43.5889 186.092 45.9531 187.639 48.1926 189.379L48.4467 189.578L48.4718 189.599C49.4129 190.316 49.9587 190.792 49.9587 190.792C49.9587 190.792 49.9995 190.846 50.056 190.943Z" fill="#FBBEBE"/>
<path opacity="0.05" d="M49.1036 190.937C49.6072 191.91 49.9076 193 49.9818 194.124C50.0561 195.248 49.9021 196.376 49.5318 197.423C48.8091 199.474 48.7288 202.032 48.8032 203.911C47.8674 203.294 46.9365 202.669 46.0106 202.038C44.8705 201.261 43.7374 200.475 42.6112 199.68C41.1242 198.625 39.6372 197.547 38.165 196.446L37.4691 195.92L37.2015 195.715C37.1773 195.666 37.1484 195.621 37.1152 195.58C36.7167 195.105 34.394 191.331 33.014 188.464C32.7642 187.939 32.5471 187.454 32.3746 187.009V186.989C32.0772 186.237 31.9374 185.641 32.0266 185.365C32.1352 184.936 32.3189 184.536 32.5666 184.188C32.8144 183.841 33.1213 183.554 33.469 183.343C35.1821 182.333 37.9301 183.266 40.6484 184.752C42.9871 186.091 45.2286 187.638 47.3519 189.377L47.5928 189.576L47.6165 189.596C48.5088 190.314 49.0262 190.789 49.0262 190.789C49.0262 190.789 49.05 190.84 49.1036 190.937Z" fill="black"/>
<path d="M60.8805 198.575C60.7911 199.151 60.6458 199.715 60.4471 200.258C60.1067 201.234 59.8725 202.251 59.7494 203.287C59.5073 205.487 59.5156 207.711 59.774 209.909C56.3744 207.963 53.023 205.931 49.7198 203.813C48.7516 203.2 47.7895 202.574 46.8336 201.944C46.6184 200.153 46.311 198.578 45.9637 198.191C45.5088 197.666 42.9115 193.599 41.2978 190.391C41.0888 189.987 40.9074 189.597 40.7384 189.226V189.209C40.6738 189.061 40.6124 188.92 40.5539 188.779C40.139 187.802 39.9177 187.041 40.0283 186.675C40.244 185.877 40.6879 185.176 41.2947 184.675C44.0211 182.494 49.6891 185.446 54.0415 188.378L54.149 188.449C54.9728 189.011 55.7535 189.566 56.4543 190.085L56.8631 190.388C58.6644 191.734 59.86 192.781 59.86 192.781C60.1571 193.283 60.3956 193.823 60.5701 194.39C60.6727 194.71 60.7579 195.036 60.8252 195.366C61.0379 196.421 61.0567 197.512 60.8805 198.575Z" fill="#FBBEBE"/>
<path opacity="0.1" d="M33.0881 188.625C35.3683 189.503 38.7337 190.668 40.5653 190.699C40.755 190.706 40.9448 190.695 41.133 190.668C42.422 190.475 46.3959 190.786 50.0435 191.149C51.505 191.291 52.9133 191.44 54.0769 191.571L57 191.917V190.672C56.1877 190.056 55.2436 189.372 54.2337 188.68C49.7769 185.644 43.9212 182.542 41.1173 184.8C37.1686 182.697 33.1603 181.688 32.0218 185.429C31.89 185.917 32.3699 187.155 33.0881 188.625Z" fill="black"/>
<path d="M23.006 160.791C23.0671 162.599 23.6846 167.294 28.1077 172.035C33.7504 178.075 31.3448 186.76 31.3448 186.76C31.3448 186.76 38.0696 189.659 40.9704 189.736C41.1553 189.742 41.3403 189.732 41.5237 189.706C43.263 189.441 50.1773 190.142 54.1511 190.582L57 190.917V165.24L25.8396 156.932L23.0182 160.019C22.9991 160.276 22.995 160.534 23.006 160.791Z" fill="#5C5C8E"/>
<g opacity="0.1">
<path opacity="0.1" d="M56.3392 190.485L56.8522 190.542V190.815L53.9893 190.482C51.1234 190.169 46.7431 189.723 43.8525 189.594C45.8522 189.401 52.4719 190.063 56.3392 190.485Z" fill="black"/>
<path opacity="0.1" d="M22.7031 160.18L25.5384 157.119L27.4306 157.615L25.0684 160.18C25.0533 160.435 25.0533 160.691 25.0684 160.946C25.1298 162.739 25.7503 167.391 30.1951 172.095C35.8656 178.084 33.4481 186.692 33.4481 186.692C33.4481 186.692 39.0387 189.071 42.2425 189.56C41.9346 189.559 41.6269 189.578 41.321 189.617C41.1367 189.643 40.9508 189.653 40.765 189.647C37.8499 189.567 31.0921 186.692 31.0921 186.692C31.0921 186.692 33.5095 178.084 27.8391 172.095C23.3728 167.391 22.7523 162.739 22.6908 160.956C22.6795 160.697 22.6836 160.438 22.7031 160.18Z" fill="black"/>
</g>
<path d="M85 143.232C85 143.232 94.2909 136.31 94.9689 142.539C95.647 148.768 85 147.894 85 147.894V143.232Z" fill="#FBBEBE"/>
<path d="M68.92 137.94C68.92 137.94 74.0492 141.559 76.8892 141.345C76.8892 141.345 84.6431 142.457 85.5446 141.901C86.4462 141.345 87 149.935 87 149.935L74.2585 148.971L66.0862 147.639C66.0862 147.639 62 144.974 62 142.678C62 140.381 68.92 137.94 68.92 137.94Z" fill="#F7CDDD"/>
<path d="M68.92 137.94C68.92 137.94 74.0492 141.559 76.8892 141.345C76.8892 141.345 84.6431 142.457 85.5446 141.901C86.4462 141.345 87 149.935 87 149.935L74.2585 148.971L66.0862 147.639C66.0862 147.639 62 144.974 62 142.678C62 140.381 68.92 137.94 68.92 137.94Z" fill="#6C63FF"/>
<path d="M76.433 156.943C76.433 156.943 88.2636 156.468 85.6129 161.816C82.9621 167.165 74 160.671 74 160.671L76.433 156.943Z" fill="#FBBEBE"/>
<path d="M65 143.938C65 143.938 74.1639 136.609 72.8759 127.684C71.5879 118.759 65 134.507 65 134.507V143.938Z" fill="#5C5C8E"/>
<path d="M67 102.456C67.0018 105.693 68.2119 108.803 70.375 111.13C71.5417 112.383 72.9465 113.37 74.5 114.027C75.0009 114.245 75.517 114.423 76.0438 114.56C76.6033 114.71 77.1725 114.819 77.7469 114.885C78.1594 114.927 78.575 114.95 78.9969 114.95C80.3397 114.947 81.6723 114.706 82.9375 114.238C85.0188 113.486 86.8608 112.152 88.2617 110.383C89.6627 108.614 90.5684 106.478 90.8797 104.209C91.1909 101.939 90.8956 99.625 90.0262 97.5188C89.1568 95.4127 87.7469 93.5962 85.9509 92.2686C84.1549 90.9409 82.0422 90.1532 79.8444 89.9919C77.6466 89.8306 75.4486 90.3019 73.4912 91.3541C71.5339 92.4064 69.8927 93.9989 68.7477 95.9572C67.6027 97.9155 66.9981 100.164 67 102.456Z" fill="#FBBEBE"/>
<path opacity="0.1" d="M23.006 160.761C24.0591 160.971 25.3603 161.357 25.3603 161.949C25.3603 162.948 40.0558 168.345 40.0558 168.345C40.0558 168.345 39.5047 169.74 40.9743 172.141C42.4438 174.541 54.3931 188.325 54.3931 188.325L54.3533 188.732L54.2003 190.32L53.4716 197.914C53.4716 197.914 58.064 196.116 59.5335 196.316C60.0081 196.379 60.5255 196.05 61 195.57C60.8253 194.663 60.5006 193.798 60.0417 193.017C60.0417 193.017 58.8508 191.998 57.0536 190.649V165.176L25.844 156.932L23.0182 159.995C22.9991 160.25 22.995 160.505 23.006 160.761Z" fill="black"/>
<path d="M21 159.35C21 159.35 24.7105 159.749 24.7105 160.756C24.7105 161.764 39.5525 167.187 39.5525 167.187C39.5525 167.187 38.9959 168.589 40.4801 171.003C41.9643 173.416 54.0326 187.274 54.0326 187.274L53.105 196.915C53.105 196.915 57.7431 195.107 59.2273 195.308C59.8921 195.398 60.6249 194.732 61.231 193.969C61.7337 193.325 62.1818 192.634 62.5699 191.904C62.5699 191.904 60.897 184.265 63.1264 182.457C65.3558 180.65 60.7146 167.394 60.7146 167.394C60.7146 167.394 58.6151 157.968 59.2335 153.924C59.2729 153.655 59.3329 153.39 59.4128 153.131C59.4128 153.101 59.4283 153.071 59.4407 153.041C60.7641 149.178 75 116.772 75 116.772C74.9908 115.853 74.931 114.935 74.8207 114.024C74.7928 113.769 74.7557 113.505 74.7094 113.241C74.6375 112.759 74.5415 112.282 74.4218 111.811C74.3414 111.503 74.2548 111.209 74.1528 110.927C73.7137 109.702 73.0396 108.762 72.0316 108.738C72.0316 108.738 70.9185 107.399 68.3211 107.045C66.404 106.773 63.683 107.045 59.9725 108.738C51.2529 112.755 49.2121 112.956 49.2121 112.956L44.8275 119.172L43.9246 120.451C40.6247 125.111 37.6373 130.02 34.9855 135.142C33.526 137.981 31.4605 141.291 28.9837 143.28C23.9715 147.3 21 159.35 21 159.35Z" fill="#6C63FF"/>
<path opacity="0.1" d="M54 135.941C54 135.941 41.7492 139.345 37 147.936L54 135.941Z" fill="black"/>
<path opacity="0.1" d="M50 150.935C50 150.935 47.4067 167.612 48.1261 168.868C48.8455 170.124 50 150.935 50 150.935Z" fill="black"/>
<path opacity="0.1" d="M50.2964 160.149C51.1992 161.407 54.8567 171.12 54.8567 171.12L53.7994 187.428L52.8718 196.915C52.8718 196.915 57.5094 195.136 58.9966 195.334C59.6582 195.422 60.394 194.77 61 194.016C60.0354 188.459 57.9763 176.835 57.5991 176.611C57.1075 176.315 54.6032 166.973 54.4703 164.378C54.3373 161.782 50.8499 155.932 50.8499 155.932C50.8499 155.932 49.3906 158.89 50.2964 160.149Z" fill="black"/>
<path opacity="0.1" d="M54.0593 143.416C54.2847 144.161 54.643 148.481 54.643 148.481C54.8963 152.291 57.5834 153.536 59.2512 153.933C59.2905 153.667 59.3504 153.404 59.4304 153.149C60.5423 149.776 75 117.193 75 117.193C74.985 115.539 74.7912 113.893 74.4224 112.287C71.2751 111.294 66.2901 112.823 66.2901 112.823C64.8509 112.621 60.1531 122.635 60.1531 122.635C60.1531 122.635 57.0212 130.304 56.6784 131.347C56.3356 132.39 56.6784 134.108 56.5394 134.704C56.4004 135.3 54.9364 135.816 54.7295 136.64C54.5226 137.465 54.6585 139.093 54.5195 139.391C54.3805 139.689 53.8184 142.672 54.0593 143.416Z" fill="black"/>
<path d="M55.0573 142.75C55.2866 143.503 55.6429 147.869 55.6429 147.869C55.8536 151.075 57.7623 152.483 59.3611 153.099C60.0791 153.376 60.8307 153.538 61.5921 153.581L63.8354 155.682L74.1876 163.929C74.1876 163.929 78.0483 156.234 77.001 156.184C75.9537 156.133 69.9147 150.663 69.9147 150.663C68.0556 149.599 66.2151 146.039 65.3568 144.213C65.4074 143.992 65.4447 143.769 65.4683 143.543C65.8432 140.134 73.6515 127.083 73.6515 127.083C73.6515 127.083 76.6695 123.245 77.8469 116.135C77.881 115.975 77.9027 115.801 77.9306 115.637C77.964 115.415 77.9847 115.192 77.9926 114.968C78.132 112.234 76.2915 111.241 74.1039 111.003C72.9673 110.908 71.8245 110.946 70.6955 111.117C69.5662 111.269 68.448 111.506 67.3491 111.826C66.4196 111.696 64.1081 115.894 62.596 118.869C61.7811 120.481 61.1955 121.743 61.1955 121.743C61.1955 121.743 58.0381 129.498 57.6848 130.552C57.3316 131.606 57.6848 133.339 57.5454 133.945C57.406 134.55 55.9373 135.069 55.7328 135.902C55.5283 136.735 55.6584 138.381 55.519 138.682C55.3795 138.983 54.8218 141.998 55.0573 142.75Z" fill="#6C63FF"/>
<path opacity="0.1" d="M43 126.13C44.9616 128.319 48.1607 128.326 50.7163 127.215C53.2719 126.104 55.4408 124.076 57.8139 122.515C59.3608 121.508 60.9821 120.659 62.4981 119.609C62.7209 119.451 62.9375 119.293 63.1478 119.132C64.899 117.789 66.412 116.067 68.2219 114.836C69.435 113.965 70.8462 113.475 72.2998 113.419C72.9704 113.412 73.6345 113.563 74.2459 113.862C74.3526 113.913 74.456 113.971 74.5553 114.037C75.1501 114.41 75.7008 114.861 76.195 115.379C76.7056 115.879 77.1975 116.413 77.742 116.876C77.7761 116.715 77.7977 116.541 77.8256 116.376C77.8589 116.154 77.8796 115.93 77.8874 115.705C78.2958 115.749 78.7073 115.772 79.125 115.772C80.4575 115.764 81.7791 115.51 83.0327 115.02C83.0327 114.967 83.0513 114.909 83.0605 114.856C83.5061 112.318 84.2981 109.63 86.1916 108.203C87.2838 107.374 89.0288 107.038 90.5386 106.407C91.0624 104.428 91.1415 102.342 90.7694 100.323C90.3972 98.3039 89.5847 96.411 88.3997 94.8027C87.2148 93.1943 85.6919 91.9174 83.9586 91.0787C82.2253 90.24 80.332 89.864 78.4373 89.9822C76.5426 90.1004 74.7015 90.7093 73.0682 91.7579C71.4349 92.8066 70.057 94.2644 69.0497 96.0095C68.0425 97.7546 67.4352 99.736 67.2788 101.788C67.1224 103.84 67.4214 105.903 68.1508 107.804C66.2325 107.532 63.5098 107.804 59.7971 109.502C51.0721 113.53 49.0301 113.731 49.0301 113.731L44.6676 119.975C45.141 120.76 45.6763 121.535 45.7258 122.452C45.8248 124.15 44.3149 125.322 43 126.13Z" fill="black"/>
<path d="M86.6295 106.511C84.7267 107.92 83.9175 110.564 83.4676 113.06C83.327 113.84 83.1926 114.663 82.7427 115.281C81.7335 116.666 79.7026 116.272 78.3841 115.281C77.0656 114.289 76.0283 112.782 74.5567 112.078C72.6008 111.146 70.3044 111.827 68.4766 113.04C66.6488 114.253 65.1178 115.949 63.3494 117.267C61.6403 118.543 59.7344 119.452 57.9535 120.599C55.5602 122.143 53.3731 124.136 50.7892 125.227C48.2053 126.318 44.9778 126.318 43 124.163C44.3279 123.382 45.8526 122.229 45.7495 120.56C45.6464 118.89 43.8061 117.638 43.9311 115.932C44.0561 114.226 45.9588 113.545 47.3242 112.706C50.1831 110.947 51.386 107.087 52.0108 103.517C52.4858 100.73 52.8763 97.6132 54.8478 95.8249C56.1163 94.6713 57.8379 94.2945 59.1158 93.1541C60.3281 92.0699 60.9904 90.4271 61.7653 88.9165C63.0369 86.3945 64.7054 84.0542 66.9144 82.5469C69.1233 81.0396 71.9322 80.4579 74.3567 81.4726C75.2941 81.8594 76.1314 82.4643 77.05 82.8841C79.3308 83.9286 81.946 83.7898 84.208 84.8872C86.9919 86.2424 88.801 89.2371 90.4569 92.0798C91.8723 94.5093 94.6405 98.8097 93.8656 101.95C93.0752 105.153 88.6947 104.981 86.6295 106.511Z" fill="#7C5C5C"/>
<g opacity="0.1">
<path opacity="0.1" d="M44.2977 115.994C44.3077 115.862 44.3293 115.732 44.3622 115.604C44.8568 116.45 45.4742 117.268 45.5326 118.266C45.5467 118.495 45.5291 118.725 45.4804 118.948C44.9305 117.99 44.2209 117.095 44.2977 115.994Z" fill="black"/>
<path opacity="0.1" d="M50.4874 122.961C53.0277 121.856 55.1779 119.85 57.5309 118.303C59.2818 117.148 61.1556 116.233 62.8358 114.949C64.5744 113.618 66.0796 111.911 67.8766 110.693C69.6735 109.476 71.9313 108.787 73.8542 109.725C75.301 110.434 76.3116 111.934 77.6171 112.949C78.9226 113.964 80.91 114.36 81.9022 112.966C82.3476 112.344 82.4766 111.519 82.6148 110.733C83.0572 108.218 83.8435 105.556 85.7234 104.139C87.7569 102.601 92.0605 102.774 92.8407 99.5304C92.9707 98.9549 93.005 98.3588 92.9421 97.7703C93.4428 99.211 93.6977 100.662 93.3967 101.926C92.6134 105.17 88.3099 104.997 86.2764 106.534C84.4087 107.952 83.6101 110.614 83.1678 113.129C83.0295 113.914 82.9005 114.743 82.4582 115.362C81.4629 116.756 79.4663 116.36 78.1577 115.345C76.8491 114.33 75.8416 112.829 74.3948 112.121C72.4719 111.182 70.2142 111.871 68.4172 113.089C66.6202 114.307 65.1151 116.017 63.3764 117.345C61.6962 118.632 59.8224 119.544 58.0715 120.698C55.7186 122.256 53.5683 124.259 51.028 125.357C48.4877 126.455 45.3145 126.451 43.3701 124.282C43.8725 123.987 44.3496 123.644 44.7954 123.257C46.5709 123.959 48.6904 123.74 50.4874 122.961Z" fill="black"/>
</g>
<path d="M250.066 89.8595L237.527 76.1459C236.912 75.4623 236.179 74.9179 235.37 74.5441C234.56 74.1702 233.691 73.9744 232.812 73.9679C231.933 73.9614 231.061 74.1444 230.247 74.5062C229.433 74.868 228.694 75.4016 228.07 76.0761L149.33 160.985L116.037 124.494C114.801 123.131 113.117 122.357 111.356 122.343C109.595 122.329 107.902 123.077 106.648 124.421L93.9737 138.058C92.7213 139.419 92.0122 141.261 92.0002 143.186C91.9881 145.111 92.6741 146.964 93.9095 148.343L144.47 203.762C145.721 205.125 147.415 205.897 149.185 205.91C150.955 205.924 152.658 205.179 153.927 203.835L249.996 100.14C250.624 99.4724 251.125 98.6757 251.469 97.7961C251.813 96.9166 251.993 95.9717 252 95.0159C252.006 94.0602 251.839 93.1124 251.507 92.2274C251.175 91.3424 250.685 90.5376 250.066 89.8595Z" fill="#3ACC6C"/>
<g opacity="0.5">
<path opacity="0.5" d="M231.558 200.301C231.558 200.301 222.165 199.689 223.264 206.819C223.208 207.18 223.258 207.552 223.408 207.881C223.558 208.209 223.8 208.478 224.1 208.649C224.1 208.649 224.1 208.12 225.061 208.3C225.399 208.362 225.743 208.38 226.084 208.353C226.545 208.32 226.983 208.125 227.331 207.797C227.331 207.797 229.97 206.616 230.999 201.938C230.999 201.938 231.758 200.92 231.727 200.657L230.142 201.392C230.142 201.392 230.686 202.63 230.259 203.658C230.259 203.658 230.207 201.435 229.902 201.489C229.841 201.489 229.079 201.918 229.079 201.918C229.079 201.918 230.001 204.074 229.306 205.644C229.306 205.644 229.574 202.983 228.787 202.074L227.672 202.78C227.672 202.78 228.76 205.009 228.022 206.826C228.022 206.826 228.213 204.037 227.436 202.953L226.425 203.804C226.425 203.804 227.448 206 226.825 207.511C226.825 207.511 226.745 204.264 226.21 204.017C226.21 204.017 225.325 204.862 225.19 205.212C225.19 205.212 225.891 206.806 225.458 207.647C225.458 207.647 225.19 205.481 224.972 205.475C224.972 205.475 224.091 206.905 223.998 207.887C224.041 206.979 224.303 206.099 224.757 205.335C224.249 205.44 223.781 205.704 223.409 206.094C223.409 206.094 223.544 205.095 224.975 204.989C224.975 204.989 225.703 203.904 225.897 203.838C225.897 203.838 224.475 203.708 223.611 204.124C223.611 204.124 224.37 203.166 226.155 203.601L227.153 202.72C227.153 202.72 225.282 202.44 224.487 202.746C224.487 202.746 225.408 201.901 227.424 202.517L228.511 201.815C228.511 201.815 226.914 201.442 225.961 201.575C225.961 201.575 226.966 200.989 228.83 201.625L229.608 201.246C229.608 201.246 228.437 200.996 228.093 200.96C227.749 200.923 227.734 200.816 227.734 200.816C228.474 200.684 229.235 200.776 229.93 201.083C229.93 201.083 231.586 200.414 231.558 200.301Z" fill="#6C63FF"/>
</g>
<g opacity="0.5">
<path opacity="0.5" d="M214.703 150.504C214.703 150.504 209.933 159.292 216.304 161.461C216.576 161.68 216.904 161.8 217.243 161.805C217.581 161.81 217.913 161.699 218.19 161.488C218.19 161.488 217.763 161.232 218.337 160.4C218.541 160.102 218.712 159.779 218.847 159.438C219.027 158.977 219.064 158.466 218.955 157.981C218.955 157.981 219.179 154.896 215.8 151.782C215.8 151.782 215.305 150.584 215.078 150.494L214.961 152.358C214.961 152.358 216.224 152.398 216.878 153.276C216.878 153.276 215.035 152.318 214.931 152.634C214.912 152.7 214.909 153.632 214.909 153.632C214.909 153.632 217.109 153.712 218.079 155.103C218.079 155.103 216.015 153.639 214.906 153.985L214.98 155.382C214.98 155.382 217.308 155.342 218.469 156.879C218.469 156.879 216.261 155.429 215.017 155.685L215.259 157.049C215.259 157.049 217.533 157.049 218.488 158.343C218.488 158.343 215.782 156.949 215.336 157.345C215.336 157.345 215.643 158.583 215.852 158.872C215.852 158.872 217.483 158.919 217.978 159.721C217.978 159.721 216.076 158.996 215.969 159.202C215.969 159.202 216.749 160.702 217.505 161.238C216.778 160.784 216.173 160.131 215.751 159.345C215.599 159.887 215.599 160.466 215.751 161.009C215.751 161.009 214.98 160.416 215.557 159.012C215.557 159.012 214.992 157.818 215.026 157.598C215.026 157.598 214.276 158.912 214.224 159.927C214.224 159.927 213.782 158.759 214.949 157.232L214.679 155.868C214.679 155.868 213.601 157.552 213.49 158.457C213.49 158.457 213.211 157.189 214.636 155.519L214.55 154.151C214.55 154.151 213.518 155.522 213.198 156.5C213.198 156.5 213.171 155.266 214.538 153.755L214.581 152.833C214.581 152.833 213.843 153.852 213.659 154.164C213.475 154.477 213.379 154.447 213.379 154.447C213.605 153.673 214.025 152.981 214.593 152.451C214.593 152.451 214.808 150.528 214.703 150.504Z" fill="#6C63FF"/>
</g>
<g opacity="0.5">
<path opacity="0.5" d="M184.867 80.3953C184.867 80.3953 180.1 89.186 186.468 91.352C186.739 91.5718 187.068 91.6927 187.407 91.6975C187.745 91.7023 188.077 91.5906 188.354 91.3786C188.354 91.3786 187.927 91.1224 188.504 90.2906C188.707 89.9926 188.877 89.6699 189.011 89.329C189.192 88.8687 189.23 88.3572 189.118 87.8717C189.118 87.8717 189.346 84.7873 185.964 81.673C185.964 81.673 185.469 80.4785 185.242 80.3887L185.125 82.2486C185.125 82.2486 186.391 82.2885 187.042 83.1669C187.042 83.1669 185.199 82.2087 185.098 82.5248C185.076 82.5913 185.076 83.523 185.076 83.523C185.076 83.523 187.272 83.6028 188.243 84.9936C188.243 84.9936 186.179 83.5296 185.07 83.8756L185.147 85.2731C185.147 85.2731 187.472 85.2332 188.633 86.7704C188.633 86.7704 186.425 85.323 185.18 85.5759L185.423 86.9401C185.423 86.9401 187.696 86.9401 188.655 88.2377C188.655 88.2377 185.945 86.8402 185.5 87.2395C185.5 87.2395 185.807 88.4739 186.019 88.7634C186.019 88.7634 187.647 88.81 188.142 89.6118C188.142 89.6118 186.24 88.8865 186.136 89.0928C186.136 89.0928 186.913 90.5967 187.672 91.1291C186.944 90.676 186.338 90.0244 185.915 89.2392C185.768 89.7755 185.768 90.3465 185.915 90.8829C185.915 90.8829 185.144 90.2906 185.721 88.8699C185.721 88.8699 185.156 87.6754 185.19 87.4558C185.19 87.4558 184.44 88.7701 184.388 89.7849C184.388 89.7849 183.946 88.617 185.116 87.0898L184.843 85.7256C184.843 85.7256 183.764 87.4092 183.657 88.3142C183.657 88.3142 183.374 87.0465 184.8 85.3762L184.714 84.0087C184.714 84.0087 183.681 85.3796 183.362 86.3578C183.362 86.3578 183.334 85.1234 184.701 83.6161L184.744 82.6911C184.744 82.6911 184.007 83.7093 183.823 84.022C183.638 84.3348 183.543 84.3049 183.543 84.3049C183.774 83.5289 184.199 82.8378 184.772 82.3085C184.772 82.3085 184.972 80.4353 184.867 80.3953Z" fill="#6C63FF"/>
</g>
<g opacity="0.5">
<path opacity="0.5" d="M82.1602 13.8193C82.1602 13.8193 64.4055 27.7939 76.158 38.8638C76.158 38.8638 77.4881 41.4857 80.1698 40.8236C80.1698 40.8236 79.4755 39.8454 81.4261 38.6476C82.1175 38.2172 82.7589 37.6989 83.3367 37.1037C84.1182 36.3064 84.639 35.2553 84.8204 34.1091C84.8204 34.1091 87.9597 27.7407 83.4105 17.6723C83.4105 17.6723 83.3828 14.6146 82.9681 14.192L81.1251 18.0583C81.1251 18.0583 83.7944 19.4192 84.4364 21.9579C84.4364 21.9579 81.3002 18.035 80.824 18.6306C80.7288 18.747 79.9271 20.7268 79.9271 20.7268C79.9271 20.7268 84.5624 23.1158 85.4409 27.0686C85.4409 27.0686 82.2831 21.8514 79.6046 21.4721L78.5632 24.5365C78.5632 24.5365 83.5733 26.8024 84.7344 31.261C84.7344 31.261 81.2572 25.9373 78.3759 25.2219L77.7246 28.3862C77.7246 28.3862 82.5719 30.6987 83.5149 34.4152C83.5149 34.4152 78.9073 28.699 77.6202 29.1215C77.6202 29.1215 77.184 32.0628 77.4144 32.9047C77.4144 32.9047 80.8609 34.6515 81.2295 36.8641C81.2295 36.8641 77.7861 33.3971 77.3806 33.7298C77.3806 33.7298 77.7554 37.7226 78.9349 39.6424C78.9349 39.6424 77.0028 36.9506 76.8062 33.8263C76.8062 33.8263 75.4884 35.49 75.4147 37.3566C75.4147 37.3566 74.272 35.3103 76.7263 32.8547C76.7263 32.8547 76.5512 29.7271 76.8123 29.2945C76.8123 29.2945 74.0723 31.3475 73.0863 33.4769C73.0863 33.4769 73.1447 30.5356 76.9567 28.4494L77.5465 25.2585C77.5465 25.2585 73.7959 27.764 72.7853 29.584C72.7853 29.584 73.2737 26.5895 77.7554 24.4533L78.7506 21.4421C78.7506 21.4421 75.3717 23.3354 73.8358 25.1022C73.8358 25.1022 74.8403 22.4403 79.0578 20.587L79.9394 18.6572C79.9394 18.6572 77.482 20.0879 76.8215 20.5671C76.1611 21.0462 75.9768 20.8998 75.9768 20.8998C77.1275 19.4687 78.6228 18.4123 80.2957 17.8487C80.2957 17.8487 82.3661 13.9757 82.1602 13.8193Z" fill="#6C63FF"/>
</g>
<g opacity="0.5">
<path opacity="0.5" d="M64.9124 59.9323C64.9124 59.9323 41.9449 49.4714 38.9346 68.3337C38.9346 68.3337 37.3649 71.275 39.5489 73.7039C39.5489 73.7039 40.0189 72.3996 42.2398 73.7472C43.0319 74.2217 43.8733 74.5925 44.7463 74.8518C45.9253 75.2041 47.178 75.1317 48.3157 74.6455C48.3157 74.6455 55.8661 74.203 62.2215 63.4992C62.2215 63.4992 64.9431 61.6758 65.0813 60.9904L60.5259 61.3231C60.5259 61.3231 60.8761 64.9332 58.99 67.0993C58.99 67.0993 60.6641 61.4961 59.8594 61.3398C59.6965 61.3065 57.4542 61.6259 57.4542 61.6259C57.4542 61.6259 58.0347 67.9045 54.9968 71.1519C54.9968 71.1519 57.8166 64.7669 56.5879 61.739L53.2305 62.4411C53.2305 62.4411 54.152 69.0457 50.8284 72.8854C50.8284 72.8854 53.5592 66.0978 52.5056 62.6507L49.2864 63.8219C49.2864 63.8219 50.0635 70.2802 47.2836 73.471C47.2836 73.471 49.7103 65.2826 48.5676 64.1546C48.5676 64.1546 45.674 65.4257 45.0535 66.151C45.0535 66.151 45.5143 70.8092 43.7449 72.4895C43.7449 72.4895 44.8323 66.8331 44.2948 66.6002C44.2948 66.6002 40.9312 69.3419 39.9052 71.7076C39.9052 71.7076 41.1862 68.0941 43.8709 66.0512C43.8709 66.0512 41.6162 65.6353 39.8776 66.6601C39.8776 66.6601 41.0418 64.2611 44.6849 65.399C44.6849 65.399 47.385 63.3727 47.9256 63.4027C47.9256 63.4027 44.4791 61.739 41.9879 61.9453C41.9879 61.9453 44.6572 60.2817 48.7673 63.06L51.9711 61.8023C51.9711 61.8023 47.5201 59.3301 45.287 59.3401C45.287 59.3401 48.2543 58.0957 52.8066 61.556L56.0934 60.8207C56.0934 60.8207 52.4073 58.3752 49.9192 57.8095C49.9192 57.8095 52.9018 57.2971 57.0395 60.6543L59.288 60.4514C59.288 60.4514 56.5664 58.7145 55.7432 58.292C54.92 57.8694 54.9568 57.5966 54.9568 57.5966C56.9162 57.9651 58.7423 58.9166 60.231 60.3449C60.231 60.3449 64.8909 60.2418 64.9124 59.9323Z" fill="#6C63FF"/>
</g>
<g opacity="0.5">
<path opacity="0.5" d="M51.1598 33.5204C51.1598 33.5204 43.0165 13.134 31.3101 22.4837C31.3101 22.4837 28.8312 23.2623 28.8527 26.0439C28.8527 26.0439 29.8172 25.5581 30.4254 27.7309C30.6522 28.5005 30.9615 29.2386 31.3469 29.9302C31.8615 30.8678 32.6445 31.598 33.577 32.0098C33.577 32.0098 38.2952 36.4085 47.7071 33.9696C47.7071 33.9696 50.2843 34.5651 50.7266 34.2457L47.8484 31.6271C47.8484 31.6271 46.1589 33.9895 43.892 34.1026C43.892 34.1026 47.833 31.8068 47.4368 31.2179C47.3569 31.0981 45.8579 29.9069 45.8579 29.9069C45.8579 29.9069 42.8998 33.9928 39.4072 34.0561C39.4072 34.0561 44.4418 31.9998 45.3019 29.4478L42.9367 27.7841C42.9367 27.7841 39.9663 32.2859 35.9761 32.5222C35.9761 32.5222 41.1673 30.1764 42.3561 27.4747L39.8281 26.2003C39.8281 26.2003 36.8915 30.5258 33.5709 30.6888C33.5709 30.6888 39.3181 27.3216 39.2291 25.9474C39.2291 25.9474 36.8423 24.916 36.0867 24.9759C36.0867 24.9759 33.9149 28.0203 31.9767 27.9338C31.9767 27.9338 35.5982 25.242 35.3986 24.7729C35.3986 24.7729 31.9582 24.327 30.106 25.1056C30.106 25.1056 32.7661 23.7481 35.4354 24.1939C35.4354 24.1939 34.3143 22.5536 32.7477 22.0977C32.7477 22.0977 34.7044 21.389 36.2679 24.3104C36.2679 24.3104 38.9372 24.7762 39.2475 25.1223C39.2475 25.1223 38.0802 21.9979 36.4829 20.5905C36.4829 20.5905 38.9403 21.2559 39.9263 25.4384L42.4913 26.6728C42.4913 26.6728 41.1489 22.4538 39.8158 21.0862C39.8158 21.0862 42.2332 22.1776 43.1179 27.0421L45.4494 28.6359C45.4494 28.6359 44.5463 24.9093 43.3698 23.036C43.3698 23.036 45.4094 24.5733 46.1036 29.1217L47.5474 30.3861C47.5474 30.3861 46.8409 27.6776 46.5736 26.919C46.3064 26.1604 46.4753 26.0206 46.4753 26.0206C47.4442 27.4482 48.028 29.1392 48.1617 30.9051C48.1617 30.9051 50.9877 33.6967 51.1598 33.5204Z" fill="#6C63FF"/>
</g>
<g opacity="0.5">
<path opacity="0.5" d="M209.871 44.1277C209.871 44.1277 207.951 34.1459 201.885 37.177C201.547 37.212 201.229 37.3619 200.975 37.6052C200.721 37.8485 200.545 38.1727 200.472 38.5312C200.472 38.5312 200.948 38.4081 201.037 39.4462C201.071 39.8146 201.144 40.1775 201.255 40.5276C201.408 40.9997 201.698 41.4057 202.081 41.6855C202.081 41.6855 203.826 44.1344 208.259 43.9813C208.259 43.9813 209.367 44.507 209.595 44.4072L208.523 42.9432C208.523 42.9432 207.561 43.8349 206.535 43.6586C206.535 43.6586 208.501 43.023 208.378 42.7169C208.351 42.6537 207.779 41.9683 207.779 41.9683C207.779 41.9683 206.102 43.5088 204.52 43.1861C204.52 43.1861 206.956 42.7668 207.564 41.7054L206.643 40.7239C206.643 40.7239 204.941 42.4474 203.129 42.1513C203.129 42.1513 205.663 41.6189 206.428 40.5243L205.402 39.6924C205.402 39.6924 203.712 41.3361 202.204 41.0799C202.204 41.0799 205.076 40.1416 205.153 39.5161C205.153 39.5161 204.17 38.814 203.823 38.7641C203.823 38.7641 202.594 39.9154 201.725 39.6825C201.725 39.6825 203.568 38.8373 203.534 38.6044C203.534 38.6044 202.026 38.0587 201.126 38.2218C201.946 38.0292 202.798 38.0717 203.599 38.3449C203.373 37.8405 203.015 37.4193 202.57 37.1338C202.57 37.1338 203.51 37.0106 203.964 38.4647C203.964 38.4647 205.122 38.9405 205.233 39.1301C205.233 39.1301 204.975 37.6096 204.379 36.801C204.379 36.801 205.429 37.3434 205.512 39.3264L206.56 40.1383C206.56 40.1383 206.317 38.1086 205.835 37.3567C205.835 37.3567 206.827 38.092 206.809 40.3512L207.73 41.3028C207.73 41.3028 207.644 39.5361 207.276 38.5778C207.276 38.5778 208.059 39.4728 207.982 41.5723L208.523 42.2877C208.523 42.2877 208.44 41.0001 208.385 40.6241C208.329 40.2481 208.415 40.2082 208.415 40.2082C208.729 40.9484 208.847 41.7685 208.756 42.5772C208.756 42.5772 209.779 44.1876 209.871 44.1277Z" fill="#6C63FF"/>
</g>
<g opacity="0.5">
<path opacity="0.5" d="M176.813 229.165C176.813 229.165 174.896 219.183 168.826 222.214C168.488 222.249 168.169 222.399 167.915 222.642C167.661 222.885 167.484 223.21 167.41 223.568C167.41 223.568 167.886 223.445 167.975 224.483C168.009 224.852 168.083 225.215 168.197 225.565C168.349 226.036 168.638 226.442 169.02 226.722C169.02 226.722 170.765 229.171 175.2 229.018C175.2 229.018 176.309 229.544 176.533 229.444L175.464 227.98C175.464 227.98 174.503 228.872 173.474 228.696C173.474 228.696 175.44 228.06 175.317 227.754C175.292 227.691 174.718 227.005 174.718 227.005C174.718 227.005 173.041 228.546 171.459 228.223C171.459 228.223 173.898 227.804 174.503 226.742L173.581 225.744C173.581 225.744 171.898 227.474 170.08 227.168C170.08 227.168 172.614 226.636 173.379 225.541L172.353 224.71C172.353 224.71 170.666 226.353 169.158 226.097C169.158 226.097 172.03 225.162 172.107 224.533C172.107 224.533 171.121 223.831 170.777 223.781C170.777 223.781 169.548 224.932 168.676 224.7C168.676 224.7 170.519 223.854 170.485 223.622C170.485 223.622 168.977 223.076 168.077 223.239C168.898 223.046 169.751 223.089 170.553 223.362C170.326 222.858 169.968 222.437 169.524 222.151C169.524 222.151 170.46 222.028 170.915 223.482C170.915 223.482 172.076 223.958 172.187 224.147C172.187 224.147 171.929 222.627 171.333 221.818C171.333 221.818 172.383 222.361 172.463 224.344L173.514 225.155C173.514 225.155 173.268 223.126 172.786 222.374C172.786 222.374 173.781 223.109 173.763 225.368L174.684 226.32C174.684 226.32 174.598 224.553 174.226 223.595C174.226 223.595 175.013 224.49 174.936 226.589L175.477 227.305C175.477 227.305 175.391 226.017 175.335 225.641C175.28 225.265 175.366 225.229 175.366 225.229C175.68 225.968 175.798 226.787 175.707 227.594C175.707 227.594 176.727 229.215 176.813 229.165Z" fill="#6C63FF"/>
</g>
<defs>
<linearGradient id="paint0_linear" x1="16617.3" y1="92257.8" x2="16617.3" y2="40667.4" gradientUnits="userSpaceOnUse">
<stop stop-color="#808080" stop-opacity="0.25"/>
<stop offset="0.54" stop-color="#808080" stop-opacity="0.12"/>
<stop offset="1" stop-color="#808080" stop-opacity="0.1"/>
</linearGradient>
</defs>
</svg>
